<svg id="visual" viewBox="0 0 960 300" width="960" height="300" xmlns="http://www.w3.org/2000/svg" xmlns:xlink="http://www.w3.org/1999/xlink" version="1.1"><rect x="0" y="0" width="960" height="300" fill="#140021"></rect><path d="M569 0L142 0L142 17L293 17L293 33L229 33L229 50L353 50L353 67L300 67L300 83L173 83L173 100L364 100L364 117L257 117L257 133L434 133L434 150L250 150L250 167L422 167L422 183L551 183L551 200L513 200L513 217L139 217L139 233L242 233L242 250L299 250L299 267L542 267L542 283L322 283L322 300L0 300L0 283L0 283L0 267L0 267L0 250L0 250L0 233L0 233L0 217L0 217L0 200L0 200L0 183L0 183L0 167L0 167L0 150L0 150L0 133L0 133L0 117L0 117L0 100L0 100L0 83L0 83L0 67L0 67L0 50L0 50L0 33L0 33L0 17L0 17L0 0L0 0Z" fill="#9900ff"></path><path d="M390 0L120 0L120 17L356 17L356 33L487 33L487 50L225 50L225 67L218 67L218 83L441 83L441 100L359 100L359 117L285 117L285 133L172 133L172 150L222 150L222 167L103 167L103 183L226 183L226 200L386 200L386 217L175 217L175 233L273 233L273 250L164 250L164 267L472 267L472 283L239 283L239 300L0 300L0 283L0 283L0 267L0 267L0 250L0 250L0 233L0 233L0 217L0 217L0 200L0 200L0 183L0 183L0 167L0 167L0 150L0 150L0 133L0 133L0 117L0 117L0 100L0 100L0 83L0 83L0 67L0 67L0 50L0 50L0 33L0 33L0 17L0 17L0 0L0 0Z" fill="#8b00e8"></path><path d="M305 0L240 0L240 17L222 17L222 33L276 33L276 50L280 50L280 67L250 67L250 83L269 83L269 100L267 100L267 117L207 117L207 133L152 133L152 150L221 150L221 167L112 167L112 183L180 183L180 200L271 200L271 217L397 217L397 233L139 233L139 250L261 250L261 267L119 267L119 283L374 283L374 300L0 300L0 283L0 283L0 267L0 267L0 250L0 250L0 233L0 233L0 217L0 217L0 200L0 200L0 183L0 183L0 167L0 167L0 150L0 150L0 133L0 133L0 117L0 117L0 100L0 100L0 83L0 83L0 67L0 67L0 50L0 50L0 33L0 33L0 17L0 17L0 0L0 0Z" fill="#7e00d1"></path><path d="M84 0L318 0L318 17L189 17L189 33L226 33L226 50L235 50L235 67L90 67L90 83L322 83L322 100L250 100L250 117L313 117L313 133L246 133L246 150L90 150L90 167L235 167L235 183L222 183L222 200L158 200L158 217L123 217L123 233L252 233L252 250L123 250L123 267L130 267L130 283L327 283L327 300L0 300L0 283L0 283L0 267L0 267L0 250L0 250L0 233L0 233L0 217L0 217L0 200L0 200L0 183L0 183L0 167L0 167L0 150L0 150L0 133L0 133L0 117L0 117L0 100L0 100L0 83L0 83L0 67L0 67L0 50L0 50L0 33L0 33L0 17L0 17L0 0L0 0Z" fill="#7000bb"></path><path d="M155 0L82 0L82 17L226 17L226 33L79 33L79 50L93 50L93 67L170 67L170 83L133 83L133 100L107 100L107 117L132 117L132 133L165 133L165 150L148 150L148 167L42 167L42 183L197 183L197 200L49 200L49 217L76 217L76 233L107 233L107 250L198 250L198 267L62 267L62 283L200 283L200 300L0 300L0 283L0 283L0 267L0 267L0 250L0 250L0 233L0 233L0 217L0 217L0 200L0 200L0 183L0 183L0 167L0 167L0 150L0 150L0 133L0 133L0 117L0 117L0 100L0 100L0 83L0 83L0 67L0 67L0 50L0 50L0 33L0 33L0 17L0 17L0 0L0 0Z" fill="#6300a5"></path><path d="M72 0L140 0L140 17L88 17L88 33L5 33L5 50L109 50L109 67L30 67L30 83L27 83L27 100L120 100L120 117L10 117L10 133L11 133L11 150L138 150L138 167L146 167L146 183L150 183L150 200L89 200L89 217L123 217L123 233L54 233L54 250L68 250L68 267L74 267L74 283L77 283L77 300L0 300L0 283L0 283L0 267L0 267L0 250L0 250L0 233L0 233L0 217L0 217L0 200L0 200L0 183L0 183L0 167L0 167L0 150L0 150L0 133L0 133L0 117L0 117L0 100L0 100L0 83L0 83L0 67L0 67L0 50L0 50L0 33L0 33L0 17L0 17L0 0L0 0Z" fill="#560090"></path></svg>