<svg id="visual" viewBox="0 0 960 300" width="960" height="300" xmlns="http://www.w3.org/2000/svg" xmlns:xlink="http://www.w3.org/1999/xlink" version="1.1"><rect x="0" y="0" width="960" height="300" fill="#001220"></rect><path d="M0 67L12.3 79.3C24.7 91.7 49.3 116.3 74 111.7C98.7 107 123.3 73 148 56.8C172.7 40.7 197.3 42.3 221.8 53.5C246.3 64.7 270.7 85.3 295.2 87.3C319.7 89.3 344.3 72.7 369 77.7C393.7 82.7 418.3 109.3 443 111.5C467.7 113.7 492.3 91.3 517 88.3C541.7 85.3 566.3 101.7 591 106.3C615.7 111 640.3 104 664.8 98.5C689.3 93 713.7 89 738.2 87C762.7 85 787.3 85 812 83C836.7 81 861.3 77 886 85C910.7 93 935.3 113 947.7 123L960 133L960 0L947.7 0C935.3 0 910.7 0 886 0C861.3 0 836.7 0 812 0C787.3 0 762.7 0 738.2 0C713.7 0 689.3 0 664.8 0C640.3 0 615.7 0 591 0C566.3 0 541.7 0 517 0C492.3 0 467.7 0 443 0C418.3 0 393.7 0 369 0C344.3 0 319.7 0 295.2 0C270.7 0 246.3 0 221.8 0C197.3 0 172.7 0 148 0C123.3 0 98.7 0 74 0C49.3 0 24.7 0 12.3 0L0 0Z" fill="#c62368"></path><path d="M0 116L12.3 116.5C24.7 117 49.3 118 74 106.7C98.7 95.3 123.3 71.7 148 71.8C172.7 72 197.3 96 221.8 94.5C246.3 93 270.7 66 295.2 61.5C319.7 57 344.3 75 369 85.7C393.7 96.3 418.3 99.7 443 98.3C467.7 97 492.3 91 517 79.3C541.7 67.7 566.3 50.3 591 44C615.7 37.7 640.3 42.3 664.8 43.3C689.3 44.3 713.7 41.7 738.2 42C762.7 42.3 787.3 45.7 812 52.3C836.7 59 861.3 69 886 71.8C910.7 74.7 935.3 70.3 947.7 68.2L960 66L960 0L947.7 0C935.3 0 910.7 0 886 0C861.3 0 836.7 0 812 0C787.3 0 762.7 0 738.2 0C713.7 0 689.3 0 664.8 0C640.3 0 615.7 0 591 0C566.3 0 541.7 0 517 0C492.3 0 467.7 0 443 0C418.3 0 393.7 0 369 0C344.3 0 319.7 0 295.2 0C270.7 0 246.3 0 221.8 0C197.3 0 172.7 0 148 0C123.3 0 98.7 0 74 0C49.3 0 24.7 0 12.3 0L0 0Z" fill="#cc2b68"></path><path d="M0 40L12.3 51C24.7 62 49.3 84 74 86C98.7 88 123.3 70 148 57.8C172.7 45.7 197.3 39.3 221.8 38.2C246.3 37 270.7 41 295.2 52.2C319.7 63.3 344.3 81.7 369 84.3C393.7 87 418.3 74 443 69.8C467.7 65.7 492.3 70.3 517 69.8C541.7 69.3 566.3 63.7 591 62C615.7 60.3 640.3 62.7 664.8 67C689.3 71.3 713.7 77.7 738.2 81.5C762.7 85.3 787.3 86.7 812 78.8C836.7 71 861.3 54 886 50.7C910.7 47.3 935.3 57.7 947.7 62.8L960 68L960 0L947.7 0C935.3 0 910.7 0 886 0C861.3 0 836.7 0 812 0C787.3 0 762.7 0 738.2 0C713.7 0 689.3 0 664.8 0C640.3 0 615.7 0 591 0C566.3 0 541.7 0 517 0C492.3 0 467.7 0 443 0C418.3 0 393.7 0 369 0C344.3 0 319.7 0 295.2 0C270.7 0 246.3 0 221.8 0C197.3 0 172.7 0 148 0C123.3 0 98.7 0 74 0C49.3 0 24.7 0 12.3 0L0 0Z" fill="#d13367"></path><path d="M0 50L12.3 50.7C24.7 51.3 49.3 52.7 74 56.8C98.7 61 123.3 68 148 74.3C172.7 80.7 197.3 86.3 221.8 89.8C246.3 93.3 270.7 94.7 295.2 92.3C319.7 90 344.3 84 369 72.8C393.7 61.7 418.3 45.3 443 43.7C467.7 42 492.3 55 517 67C541.7 79 566.3 90 591 94.7C615.7 99.3 640.3 97.7 664.8 90.2C689.3 82.7 713.7 69.3 738.2 61.3C762.7 53.3 787.3 50.7 812 47.8C836.7 45 861.3 42 886 45C910.7 48 935.3 57 947.7 61.5L960 66L960 0L947.7 0C935.3 0 910.7 0 886 0C861.3 0 836.7 0 812 0C787.3 0 762.7 0 738.2 0C713.7 0 689.3 0 664.8 0C640.3 0 615.7 0 591 0C566.3 0 541.7 0 517 0C492.3 0 467.7 0 443 0C418.3 0 393.7 0 369 0C344.3 0 319.7 0 295.2 0C270.7 0 246.3 0 221.8 0C197.3 0 172.7 0 148 0C123.3 0 98.7 0 74 0C49.3 0 24.7 0 12.3 0L0 0Z" fill="#d73a67"></path><path d="M0 48L12.3 47.7C24.7 47.3 49.3 46.7 74 44C98.7 41.3 123.3 36.7 148 38.8C172.7 41 197.3 50 221.8 57C246.3 64 270.7 69 295.2 72.5C319.7 76 344.3 78 369 76.2C393.7 74.3 418.3 68.7 443 68C467.7 67.3 492.3 71.7 517 72.2C541.7 72.7 566.3 69.3 591 65.3C615.7 61.3 640.3 56.7 664.8 53.3C689.3 50 713.7 48 738.2 45.8C762.7 43.7 787.3 41.3 812 39.7C836.7 38 861.3 37 886 43.8C910.7 50.7 935.3 65.3 947.7 72.7L960 80L960 0L947.7 0C935.3 0 910.7 0 886 0C861.3 0 836.7 0 812 0C787.3 0 762.7 0 738.2 0C713.7 0 689.3 0 664.8 0C640.3 0 615.7 0 591 0C566.3 0 541.7 0 517 0C492.3 0 467.7 0 443 0C418.3 0 393.7 0 369 0C344.3 0 319.7 0 295.2 0C270.7 0 246.3 0 221.8 0C197.3 0 172.7 0 148 0C123.3 0 98.7 0 74 0C49.3 0 24.7 0 12.3 0L0 0Z" fill="#dc4167"></path><path d="M0 54L12.3 52.8C24.7 51.7 49.3 49.3 74 44.7C98.7 40 123.3 33 148 31C172.7 29 197.3 32 221.8 34.7C246.3 37.3 270.7 39.7 295.2 38C319.7 36.3 344.3 30.7 369 29.2C393.7 27.7 418.3 30.3 443 39.8C467.7 49.3 492.3 65.7 517 74.5C541.7 83.3 566.3 84.7 591 82.7C615.7 80.7 640.3 75.3 664.8 65C689.3 54.7 713.7 39.3 738.2 33C762.7 26.7 787.3 29.3 812 38.2C836.7 47 861.3 62 886 67.5C910.7 73 935.3 69 947.7 67L960 65L960 0L947.7 0C935.3 0 910.7 0 886 0C861.3 0 836.7 0 812 0C787.3 0 762.7 0 738.2 0C713.7 0 689.3 0 664.8 0C640.3 0 615.7 0 591 0C566.3 0 541.7 0 517 0C492.3 0 467.7 0 443 0C418.3 0 393.7 0 369 0C344.3 0 319.7 0 295.2 0C270.7 0 246.3 0 221.8 0C197.3 0 172.7 0 148 0C123.3 0 98.7 0 74 0C49.3 0 24.7 0 12.3 0L0 0Z" fill="#e14867"></path><path d="M0 74L12.3 68.5C24.7 63 49.3 52 74 48.7C98.7 45.3 123.3 49.7 148 53C172.7 56.3 197.3 58.7 221.8 62.3C246.3 66 270.7 71 295.2 67.7C319.7 64.3 344.3 52.7 369 47.5C393.7 42.3 418.3 43.7 443 44.5C467.7 45.3 492.3 45.7 517 49.8C541.7 54 566.3 62 591 61.2C615.7 60.3 640.3 50.7 664.8 48.5C689.3 46.3 713.7 51.7 738.2 51.3C762.7 51 787.3 45 812 45.7C836.7 46.3 861.3 53.7 886 53C910.7 52.3 935.3 43.7 947.7 39.3L960 35L960 0L947.7 0C935.3 0 910.7 0 886 0C861.3 0 836.7 0 812 0C787.3 0 762.7 0 738.2 0C713.7 0 689.3 0 664.8 0C640.3 0 615.7 0 591 0C566.3 0 541.7 0 517 0C492.3 0 467.7 0 443 0C418.3 0 393.7 0 369 0C344.3 0 319.7 0 295.2 0C270.7 0 246.3 0 221.8 0C197.3 0 172.7 0 148 0C123.3 0 98.7 0 74 0C49.3 0 24.7 0 12.3 0L0 0Z" fill="#e54f67"></path><path d="M0 17L12.3 19C24.7 21 49.3 25 74 31.7C98.7 38.3 123.3 47.7 148 50C172.7 52.3 197.3 47.7 221.8 43.8C246.3 40 270.7 37 295.2 39.5C319.7 42 344.3 50 369 52.8C393.7 55.7 418.3 53.3 443 51.2C467.7 49 492.3 47 517 46C541.7 45 566.3 45 591 44.5C615.7 44 640.3 43 664.8 43.2C689.3 43.3 713.7 44.7 738.2 44.8C762.7 45 787.3 44 812 40.8C836.7 37.7 861.3 32.3 886 34.2C910.7 36 935.3 45 947.7 49.5L960 54L960 0L947.7 0C935.3 0 910.7 0 886 0C861.3 0 836.7 0 812 0C787.3 0 762.7 0 738.2 0C713.7 0 689.3 0 664.8 0C640.3 0 615.7 0 591 0C566.3 0 541.7 0 517 0C492.3 0 467.7 0 443 0C418.3 0 393.7 0 369 0C344.3 0 319.7 0 295.2 0C270.7 0 246.3 0 221.8 0C197.3 0 172.7 0 148 0C123.3 0 98.7 0 74 0C49.3 0 24.7 0 12.3 0L0 0Z" fill="#ea5667"></path><path d="M0 17L12.3 16.7C24.7 16.3 49.3 15.7 74 19C98.7 22.3 123.3 29.7 148 31.3C172.7 33 197.3 29 221.8 28.3C246.3 27.7 270.7 30.3 295.2 29.3C319.7 28.3 344.3 23.7 369 25.5C393.7 27.3 418.3 35.7 443 40.2C467.7 44.7 492.3 45.3 517 40.8C541.7 36.3 566.3 26.7 591 24.2C615.7 21.7 640.3 26.3 664.8 31.8C689.3 37.3 713.7 43.7 738.2 47.3C762.7 51 787.3 52 812 49.7C836.7 47.3 861.3 41.7 886 37C910.7 32.3 935.3 28.7 947.7 26.8L960 25L960 0L947.7 0C935.3 0 910.7 0 886 0C861.3 0 836.7 0 812 0C787.3 0 762.7 0 738.2 0C713.7 0 689.3 0 664.8 0C640.3 0 615.7 0 591 0C566.3 0 541.7 0 517 0C492.3 0 467.7 0 443 0C418.3 0 393.7 0 369 0C344.3 0 319.7 0 295.2 0C270.7 0 246.3 0 221.8 0C197.3 0 172.7 0 148 0C123.3 0 98.7 0 74 0C49.3 0 24.7 0 12.3 0L0 0Z" fill="#ee5d67"></path><path d="M0 13L12.3 17.8C24.7 22.7 49.3 32.3 74 35.3C98.7 38.3 123.3 34.7 148 34.5C172.7 34.3 197.3 37.7 221.8 35.7C246.3 33.7 270.7 26.3 295.2 26.5C319.7 26.7 344.3 34.3 369 37.3C393.7 40.3 418.3 38.7 443 35.5C467.7 32.3 492.3 27.7 517 23.3C541.7 19 566.3 15 591 13.3C615.7 11.7 640.3 12.3 664.8 14.5C689.3 16.7 713.7 20.3 738.2 24.2C762.7 28 787.3 32 812 33.5C836.7 35 861.3 34 886 30.2C910.7 26.3 935.3 19.7 947.7 16.3L960 13L960 0L947.7 0C935.3 0 910.7 0 886 0C861.3 0 836.7 0 812 0C787.3 0 762.7 0 738.2 0C713.7 0 689.3 0 664.8 0C640.3 0 615.7 0 591 0C566.3 0 541.7 0 517 0C492.3 0 467.7 0 443 0C418.3 0 393.7 0 369 0C344.3 0 319.7 0 295.2 0C270.7 0 246.3 0 221.8 0C197.3 0 172.7 0 148 0C123.3 0 98.7 0 74 0C49.3 0 24.7 0 12.3 0L0 0Z" fill="#f26467"></path><path d="M0 18L12.3 19.7C24.7 21.3 49.3 24.7 74 25.2C98.7 25.7 123.3 23.3 148 20.2C172.7 17 197.3 13 221.8 12.3C246.3 11.7 270.7 14.3 295.2 16.8C319.7 19.3 344.3 21.7 369 22.7C393.7 23.7 418.3 23.3 443 23C467.7 22.7 492.3 22.3 517 21.2C541.7 20 566.3 18 591 17C615.7 16 640.3 16 664.8 18.3C689.3 20.7 713.7 25.3 738.2 26C762.7 26.7 787.3 23.3 812 23.5C836.7 23.7 861.3 27.3 886 26.3C910.7 25.3 935.3 19.7 947.7 16.8L960 14L960 0L947.7 0C935.3 0 910.7 0 886 0C861.3 0 836.7 0 812 0C787.3 0 762.7 0 738.2 0C713.7 0 689.3 0 664.8 0C640.3 0 615.7 0 591 0C566.3 0 541.7 0 517 0C492.3 0 467.7 0 443 0C418.3 0 393.7 0 369 0C344.3 0 319.7 0 295.2 0C270.7 0 246.3 0 221.8 0C197.3 0 172.7 0 148 0C123.3 0 98.7 0 74 0C49.3 0 24.7 0 12.3 0L0 0Z" fill="#f66b68"></path><path d="M0 14L12.3 15.2C24.7 16.3 49.3 18.7 74 18C98.7 17.3 123.3 13.7 148 11.5C172.7 9.3 197.3 8.7 221.8 9C246.3 9.3 270.7 10.7 295.2 11.7C319.7 12.7 344.3 13.3 369 13.3C393.7 13.3 418.3 12.7 443 11.7C467.7 10.7 492.3 9.3 517 10.5C541.7 11.7 566.3 15.3 591 16.7C615.7 18 640.3 17 664.8 16.7C689.3 16.3 713.7 16.7 738.2 17C762.7 17.3 787.3 17.7 812 18C836.7 18.3 861.3 18.7 886 16.7C910.7 14.7 935.3 10.3 947.7 8.2L960 6L960 0L947.7 0C935.3 0 910.7 0 886 0C861.3 0 836.7 0 812 0C787.3 0 762.7 0 738.2 0C713.7 0 689.3 0 664.8 0C640.3 0 615.7 0 591 0C566.3 0 541.7 0 517 0C492.3 0 467.7 0 443 0C418.3 0 393.7 0 369 0C344.3 0 319.7 0 295.2 0C270.7 0 246.3 0 221.8 0C197.3 0 172.7 0 148 0C123.3 0 98.7 0 74 0C49.3 0 24.7 0 12.3 0L0 0Z" fill="#fa7268"></path></svg>