<svg id="visual" viewBox="0 0 900 600" width="900" height="600" xmlns="http://www.w3.org/2000/svg" xmlns:xlink="http://www.w3.org/1999/xlink" version="1.1"><rect x="0" y="0" width="900" height="600" fill="#001220"></rect><path d="M0 260L11.5 246.3C23 232.7 46 205.3 69 206.5C92 207.7 115 237.3 138.2 230.7C161.3 224 184.7 181 207.8 178.7C231 176.3 254 214.7 277 237C300 259.3 323 265.7 346 250.8C369 236 392 200 415.2 189.8C438.3 179.7 461.7 195.3 484.8 184.5C508 173.7 531 136.3 554 135.7C577 135 600 171 623 200.7C646 230.3 669 253.7 692.2 242.8C715.3 232 738.7 187 761.8 174.3C785 161.7 808 181.3 831 189.5C854 197.7 877 194.3 888.5 192.7L900 191L900 0L888.5 0C877 0 854 0 831 0C808 0 785 0 761.8 0C738.7 0 715.3 0 692.2 0C669 0 646 0 623 0C600 0 577 0 554 0C531 0 508 0 484.8 0C461.7 0 438.3 0 415.2 0C392 0 369 0 346 0C323 0 300 0 277 0C254 0 231 0 207.8 0C184.7 0 161.3 0 138.2 0C115 0 92 0 69 0C46 0 23 0 11.5 0L0 0Z" fill="#c62368"></path><path d="M0 218L11.5 203.8C23 189.7 46 161.3 69 143.2C92 125 115 117 138.2 121.2C161.3 125.3 184.7 141.7 207.8 155.8C231 170 254 182 277 187.8C300 193.7 323 193.3 346 177.7C369 162 392 131 415.2 130.7C438.3 130.3 461.7 160.7 484.8 160.2C508 159.7 531 128.3 554 119.8C577 111.3 600 125.7 623 121.2C646 116.7 669 93.3 692.2 114C715.3 134.7 738.7 199.3 761.8 199C785 198.7 808 133.3 831 106.7C854 80 877 92 888.5 98L900 104L900 0L888.5 0C877 0 854 0 831 0C808 0 785 0 761.8 0C738.7 0 715.3 0 692.2 0C669 0 646 0 623 0C600 0 577 0 554 0C531 0 508 0 484.8 0C461.7 0 438.3 0 415.2 0C392 0 369 0 346 0C323 0 300 0 277 0C254 0 231 0 207.8 0C184.7 0 161.3 0 138.2 0C115 0 92 0 69 0C46 0 23 0 11.5 0L0 0Z" fill="#cc2b68"></path><path d="M0 203L11.5 208.7C23 214.3 46 225.7 69 213.3C92 201 115 165 138.2 165.2C161.3 165.3 184.7 201.7 207.8 214.2C231 226.7 254 215.3 277 198.3C300 181.3 323 158.7 346 155.7C369 152.7 392 169.3 415.2 175.3C438.3 181.3 461.7 176.7 484.8 183C508 189.3 531 206.7 554 213.3C577 220 600 216 623 205.7C646 195.3 669 178.7 692.2 178.5C715.3 178.3 738.7 194.7 761.8 198C785 201.3 808 191.7 831 181.7C854 171.7 877 161.3 888.5 156.2L900 151L900 0L888.5 0C877 0 854 0 831 0C808 0 785 0 761.8 0C738.7 0 715.3 0 692.2 0C669 0 646 0 623 0C600 0 577 0 554 0C531 0 508 0 484.8 0C461.7 0 438.3 0 415.2 0C392 0 369 0 346 0C323 0 300 0 277 0C254 0 231 0 207.8 0C184.7 0 161.3 0 138.2 0C115 0 92 0 69 0C46 0 23 0 11.5 0L0 0Z" fill="#d13367"></path><path d="M0 83L11.5 89.2C23 95.3 46 107.7 69 120C92 132.3 115 144.7 138.2 160.3C161.3 176 184.7 195 207.8 180.2C231 165.3 254 116.7 277 101C300 85.3 323 102.7 346 122C369 141.3 392 162.7 415.2 160C438.3 157.3 461.7 130.7 484.8 117.3C508 104 531 104 554 117.7C577 131.3 600 158.7 623 172.2C646 185.7 669 185.3 692.2 179.5C715.3 173.7 738.7 162.3 761.8 166.5C785 170.7 808 190.3 831 183.2C854 176 877 142 888.5 125L900 108L900 0L888.5 0C877 0 854 0 831 0C808 0 785 0 761.8 0C738.7 0 715.3 0 692.2 0C669 0 646 0 623 0C600 0 577 0 554 0C531 0 508 0 484.8 0C461.7 0 438.3 0 415.2 0C392 0 369 0 346 0C323 0 300 0 277 0C254 0 231 0 207.8 0C184.7 0 161.3 0 138.2 0C115 0 92 0 69 0C46 0 23 0 11.5 0L0 0Z" fill="#d73a67"></path><path d="M0 80L11.5 93C23 106 46 132 69 141C92 150 115 142 138.2 127.2C161.3 112.3 184.7 90.7 207.8 85.7C231 80.7 254 92.3 277 105.7C300 119 323 134 346 133.3C369 132.7 392 116.3 415.2 119.8C438.3 123.3 461.7 146.7 484.8 143.2C508 139.7 531 109.3 554 96.3C577 83.3 600 87.7 623 92.7C646 97.7 669 103.3 692.2 115.3C715.3 127.3 738.7 145.7 761.8 140.7C785 135.7 808 107.3 831 111.2C854 115 877 151 888.5 169L900 187L900 0L888.5 0C877 0 854 0 831 0C808 0 785 0 761.8 0C738.7 0 715.3 0 692.2 0C669 0 646 0 623 0C600 0 577 0 554 0C531 0 508 0 484.8 0C461.7 0 438.3 0 415.2 0C392 0 369 0 346 0C323 0 300 0 277 0C254 0 231 0 207.8 0C184.7 0 161.3 0 138.2 0C115 0 92 0 69 0C46 0 23 0 11.5 0L0 0Z" fill="#dc4167"></path><path d="M0 148L11.5 131.8C23 115.7 46 83.3 69 84.2C92 85 115 119 138.2 128.2C161.3 137.3 184.7 121.7 207.8 111.3C231 101 254 96 277 101.3C300 106.7 323 122.3 346 122.7C369 123 392 108 415.2 98.2C438.3 88.3 461.7 83.7 484.8 87.3C508 91 531 103 554 110.2C577 117.3 600 119.7 623 127C646 134.3 669 146.7 692.2 137.5C715.3 128.3 738.7 97.7 761.8 95C785 92.3 808 117.7 831 126.5C854 135.3 877 127.7 888.5 123.8L900 120L900 0L888.5 0C877 0 854 0 831 0C808 0 785 0 761.8 0C738.7 0 715.3 0 692.2 0C669 0 646 0 623 0C600 0 577 0 554 0C531 0 508 0 484.8 0C461.7 0 438.3 0 415.2 0C392 0 369 0 346 0C323 0 300 0 277 0C254 0 231 0 207.8 0C184.7 0 161.3 0 138.2 0C115 0 92 0 69 0C46 0 23 0 11.5 0L0 0Z" fill="#e14867"></path><path d="M0 137L11.5 125.7C23 114.3 46 91.7 69 89C92 86.3 115 103.7 138.2 108.7C161.3 113.7 184.7 106.3 207.8 108.3C231 110.3 254 121.7 277 130.2C300 138.7 323 144.3 346 136C369 127.7 392 105.3 415.2 91.7C438.3 78 461.7 73 484.8 66.8C508 60.7 531 53.3 554 48.5C577 43.7 600 41.3 623 42.3C646 43.3 669 47.7 692.2 62.5C715.3 77.3 738.7 102.7 761.8 103.7C785 104.7 808 81.3 831 77.5C854 73.7 877 89.3 888.5 97.2L900 105L900 0L888.5 0C877 0 854 0 831 0C808 0 785 0 761.8 0C738.7 0 715.3 0 692.2 0C669 0 646 0 623 0C600 0 577 0 554 0C531 0 508 0 484.8 0C461.7 0 438.3 0 415.2 0C392 0 369 0 346 0C323 0 300 0 277 0C254 0 231 0 207.8 0C184.7 0 161.3 0 138.2 0C115 0 92 0 69 0C46 0 23 0 11.5 0L0 0Z" fill="#e54f67"></path><path d="M0 39L11.5 44.2C23 49.3 46 59.7 69 64C92 68.3 115 66.7 138.2 70C161.3 73.3 184.7 81.7 207.8 76.3C231 71 254 52 277 49.3C300 46.7 323 60.3 346 60.7C369 61 392 48 415.2 48.8C438.3 49.7 461.7 64.3 484.8 71.7C508 79 531 79 554 75.7C577 72.3 600 65.7 623 60.3C646 55 669 51 692.2 53C715.3 55 738.7 63 761.8 69.8C785 76.7 808 82.3 831 91.8C854 101.3 877 114.7 888.5 121.3L900 128L900 0L888.5 0C877 0 854 0 831 0C808 0 785 0 761.8 0C738.7 0 715.3 0 692.2 0C669 0 646 0 623 0C600 0 577 0 554 0C531 0 508 0 484.8 0C461.7 0 438.3 0 415.2 0C392 0 369 0 346 0C323 0 300 0 277 0C254 0 231 0 207.8 0C184.7 0 161.3 0 138.2 0C115 0 92 0 69 0C46 0 23 0 11.5 0L0 0Z" fill="#ea5667"></path><path d="M0 88L11.5 85.8C23 83.7 46 79.3 69 74.8C92 70.3 115 65.7 138.2 65.3C161.3 65 184.7 69 207.8 74.7C231 80.3 254 87.7 277 91.3C300 95 323 95 346 87.7C369 80.3 392 65.7 415.2 56.5C438.3 47.3 461.7 43.7 484.8 46.5C508 49.3 531 58.7 554 63.3C577 68 600 68 623 64.2C646 60.3 669 52.7 692.2 54.8C715.3 57 738.7 69 761.8 70.7C785 72.3 808 63.7 831 55C854 46.3 877 37.7 888.5 33.3L900 29L900 0L888.5 0C877 0 854 0 831 0C808 0 785 0 761.8 0C738.7 0 715.3 0 692.2 0C669 0 646 0 623 0C600 0 577 0 554 0C531 0 508 0 484.8 0C461.7 0 438.3 0 415.2 0C392 0 369 0 346 0C323 0 300 0 277 0C254 0 231 0 207.8 0C184.7 0 161.3 0 138.2 0C115 0 92 0 69 0C46 0 23 0 11.5 0L0 0Z" fill="#ee5d67"></path><path d="M0 71L11.5 66.8C23 62.7 46 54.3 69 50.5C92 46.7 115 47.3 138.2 44.5C161.3 41.7 184.7 35.3 207.8 40.5C231 45.7 254 62.3 277 61.2C300 60 323 41 346 32.8C369 24.7 392 27.3 415.2 35.8C438.3 44.3 461.7 58.7 484.8 63.2C508 67.7 531 62.3 554 55C577 47.7 600 38.3 623 41.5C646 44.7 669 60.3 692.2 64C715.3 67.7 738.7 59.3 761.8 55.8C785 52.3 808 53.7 831 50.5C854 47.3 877 39.7 888.5 35.8L900 32L900 0L888.5 0C877 0 854 0 831 0C808 0 785 0 761.8 0C738.7 0 715.3 0 692.2 0C669 0 646 0 623 0C600 0 577 0 554 0C531 0 508 0 484.8 0C461.7 0 438.3 0 415.2 0C392 0 369 0 346 0C323 0 300 0 277 0C254 0 231 0 207.8 0C184.7 0 161.3 0 138.2 0C115 0 92 0 69 0C46 0 23 0 11.5 0L0 0Z" fill="#f26467"></path><path d="M0 28L11.5 29.3C23 30.7 46 33.3 69 34.8C92 36.3 115 36.7 138.2 34C161.3 31.3 184.7 25.7 207.8 23.8C231 22 254 24 277 28.7C300 33.3 323 40.7 346 42.7C369 44.7 392 41.3 415.2 38.3C438.3 35.3 461.7 32.7 484.8 35C508 37.3 531 44.7 554 50C577 55.3 600 58.7 623 55.8C646 53 669 44 692.2 42.2C715.3 40.3 738.7 45.7 761.8 49.5C785 53.3 808 55.7 831 54.7C854 53.7 877 49.3 888.5 47.2L900 45L900 0L888.5 0C877 0 854 0 831 0C808 0 785 0 761.8 0C738.7 0 715.3 0 692.2 0C669 0 646 0 623 0C600 0 577 0 554 0C531 0 508 0 484.8 0C461.7 0 438.3 0 415.2 0C392 0 369 0 346 0C323 0 300 0 277 0C254 0 231 0 207.8 0C184.7 0 161.3 0 138.2 0C115 0 92 0 69 0C46 0 23 0 11.5 0L0 0Z" fill="#f66b68"></path><path d="M0 12L11.5 14.2C23 16.3 46 20.7 69 23.2C92 25.7 115 26.3 138.2 24.3C161.3 22.3 184.7 17.7 207.8 15.7C231 13.7 254 14.3 277 19.3C300 24.3 323 33.7 346 36C369 38.3 392 33.7 415.2 32.7C438.3 31.7 461.7 34.3 484.8 32.2C508 30 531 23 554 23.7C577 24.3 600 32.7 623 33.2C646 33.7 669 26.3 692.2 25.2C715.3 24 738.7 29 761.8 30.8C785 32.7 808 31.3 831 31.7C854 32 877 34 888.5 35L900 36L900 0L888.5 0C877 0 854 0 831 0C808 0 785 0 761.8 0C738.7 0 715.3 0 692.2 0C669 0 646 0 623 0C600 0 577 0 554 0C531 0 508 0 484.8 0C461.7 0 438.3 0 415.2 0C392 0 369 0 346 0C323 0 300 0 277 0C254 0 231 0 207.8 0C184.7 0 161.3 0 138.2 0C115 0 92 0 69 0C46 0 23 0 11.5 0L0 0Z" fill="#fa7268"></path></svg>