<svg id="visual" viewBox="0 0 960 300" width="960" height="300" xmlns="http://www.w3.org/2000/svg" xmlns:xlink="http://www.w3.org/1999/xlink" version="1.1"><g stroke-width="1" stroke-linejoin="bevel"><path d="M477 138.6L426 141.4L436 164.1Z" fill="#001220" stroke="#001220"></path><path d="M426 141.4L416 152.3L436 164.1Z" fill="#914577" stroke="#914577"></path><path d="M400 185.3L437 180.4L436 164.1Z" fill="#383158" stroke="#383158"></path><path d="M436 164.1L481 198.3L477 138.6Z" fill="#e56271" stroke="#e56271"></path><path d="M437 180.4L481 198.3L436 164.1Z" fill="#202846" stroke="#202846"></path><path d="M426 141.4L389 150.4L416 152.3Z" fill="#543866" stroke="#543866"></path><path d="M416 152.3L400 185.3L436 164.1Z" fill="#543866" stroke="#543866"></path><path d="M389 150.4L389 162.7L416 152.3Z" fill="#723f71" stroke="#723f71"></path><path d="M437 180.4L434 222.1L481 198.3Z" fill="#543866" stroke="#543866"></path><path d="M481 198.3L500 188.1L477 138.6Z" fill="#914577" stroke="#914577"></path><path d="M389 162.7L400 185.3L416 152.3Z" fill="#e56271" stroke="#e56271"></path><path d="M530 113.7L504 96.7L477 138.6Z" fill="#fa7268" stroke="#fa7268"></path><path d="M489 61.6L401 73.9L426 141.4Z" fill="#543866" stroke="#543866"></path><path d="M426 141.4L401 73.9L389 150.4Z" fill="#383158" stroke="#383158"></path><path d="M389 162.7L385 179.6L400 185.3Z" fill="#cc5577" stroke="#cc5577"></path><path d="M361 182.1L385 179.6L389 162.7Z" fill="#fa7268" stroke="#fa7268"></path><path d="M336 239.4L434 222.1L400 185.3Z" fill="#914577" stroke="#914577"></path><path d="M400 185.3L434 222.1L437 180.4Z" fill="#202846" stroke="#202846"></path><path d="M500 188.1L530 113.7L477 138.6Z" fill="#383158" stroke="#383158"></path><path d="M489 61.6L426 141.4L477 138.6Z" fill="#543866" stroke="#543866"></path><path d="M481 198.3L480 228.3L500 188.1Z" fill="#e56271" stroke="#e56271"></path><path d="M434 222.1L480 228.3L481 198.3Z" fill="#af4c79" stroke="#af4c79"></path><path d="M529 75.4L489 61.6L504 96.7Z" fill="#cc5577" stroke="#cc5577"></path><path d="M504 96.7L489 61.6L477 138.6Z" fill="#001220" stroke="#001220"></path><path d="M307 170.3L361 182.1L389 150.4Z" fill="#543866" stroke="#543866"></path><path d="M389 150.4L361 182.1L389 162.7Z" fill="#543866" stroke="#543866"></path><path d="M385 179.6L361 182.1L400 185.3Z" fill="#202846" stroke="#202846"></path><path d="M530 113.7L529 75.4L504 96.7Z" fill="#fa7268" stroke="#fa7268"></path><path d="M489 61.6L413 47.9L401 73.9Z" fill="#202846" stroke="#202846"></path><path d="M587 163.4L563 155.7L581 195.6Z" fill="#e56271" stroke="#e56271"></path><path d="M500 188.1L563 155.7L530 113.7Z" fill="#e56271" stroke="#e56271"></path><path d="M530 113.7L586 106.4L529 75.4Z" fill="#0d1e33" stroke="#0d1e33"></path><path d="M336 239.4L441 261.1L434 222.1Z" fill="#723f71" stroke="#723f71"></path><path d="M434 222.1L441 261.1L480 228.3Z" fill="#723f71" stroke="#723f71"></path><path d="M529 75.4L510 31.9L489 61.6Z" fill="#723f71" stroke="#723f71"></path><path d="M489 61.6L474 5.9L413 47.9Z" fill="#543866" stroke="#543866"></path><path d="M581 195.6L563 155.7L500 188.1Z" fill="#001220" stroke="#001220"></path><path d="M563 155.7L586 106.4L530 113.7Z" fill="#914577" stroke="#914577"></path><path d="M529 75.4L557 31.9L510 31.9Z" fill="#383158" stroke="#383158"></path><path d="M581 195.6L500 188.1L480 228.3Z" fill="#001220" stroke="#001220"></path><path d="M559 295.3L581 195.6L480 228.3Z" fill="#fa7268" stroke="#fa7268"></path><path d="M593 139.7L586 106.4L563 155.7Z" fill="#383158" stroke="#383158"></path><path d="M510 31.9L474 5.9L489 61.6Z" fill="#fa7268" stroke="#fa7268"></path><path d="M413 47.9L356 40.6L401 73.9Z" fill="#202846" stroke="#202846"></path><path d="M401 73.9L280 109.9L389 150.4Z" fill="#cc5577" stroke="#cc5577"></path><path d="M351 28.7L356 40.6L394 0Z" fill="#001220" stroke="#001220"></path><path d="M597 131.7L593 139.7L643 159.1Z" fill="#202846" stroke="#202846"></path><path d="M587 163.4L593 139.7L563 155.7Z" fill="#723f71" stroke="#723f71"></path><path d="M474 5.9L440 0L413 47.9Z" fill="#fa7268" stroke="#fa7268"></path><path d="M615 109.6L597 131.7L643 159.1Z" fill="#af4c79" stroke="#af4c79"></path><path d="M593 139.7L597 131.7L586 106.4Z" fill="#fa7268" stroke="#fa7268"></path><path d="M280 109.9L307 170.3L389 150.4Z" fill="#202846" stroke="#202846"></path><path d="M361 182.1L336 239.4L400 185.3Z" fill="#383158" stroke="#383158"></path><path d="M333 237.4L336 239.4L361 182.1Z" fill="#202846" stroke="#202846"></path><path d="M521 0L497 0L510 31.9Z" fill="#914577" stroke="#914577"></path><path d="M510 31.9L497 0L474 5.9Z" fill="#af4c79" stroke="#af4c79"></path><path d="M474 5.9L434 -51.1L440 0Z" fill="#914577" stroke="#914577"></path><path d="M307 170.3L333 237.4L361 182.1Z" fill="#af4c79" stroke="#af4c79"></path><path d="M394 0L356 40.6L413 47.9Z" fill="#914577" stroke="#914577"></path><path d="M356 40.6L280 109.9L401 73.9Z" fill="#001220" stroke="#001220"></path><path d="M586 106.4L557 31.9L529 75.4Z" fill="#cc5577" stroke="#cc5577"></path><path d="M615 109.6L557 31.9L586 106.4Z" fill="#e56271" stroke="#e56271"></path><path d="M440 0L394 0L413 47.9Z" fill="#001220" stroke="#001220"></path><path d="M414 300L457 300L441 261.1Z" fill="#fa7268" stroke="#fa7268"></path><path d="M441 261.1L491 300L480 228.3Z" fill="#e56271" stroke="#e56271"></path><path d="M557 31.9L521 0L510 31.9Z" fill="#383158" stroke="#383158"></path><path d="M349 300L414 300L336 239.4Z" fill="#383158" stroke="#383158"></path><path d="M336 239.4L414 300L441 261.1Z" fill="#e56271" stroke="#e56271"></path><path d="M457 300L491 300L441 261.1Z" fill="#0d1e33" stroke="#0d1e33"></path><path d="M643 159.1L593 139.7L587 163.4Z" fill="#202846" stroke="#202846"></path><path d="M597 131.7L615 109.6L586 106.4Z" fill="#914577" stroke="#914577"></path><path d="M273 10.7L280 109.9L356 40.6Z" fill="#0d1e33" stroke="#0d1e33"></path><path d="M307 170.3L285 202.6L333 237.4Z" fill="#914577" stroke="#914577"></path><path d="M576 286.3L614 212.6L581 195.6Z" fill="#e56271" stroke="#e56271"></path><path d="M581 195.6L614 212.6L587 163.4Z" fill="#e56271" stroke="#e56271"></path><path d="M261 194.6L285 202.6L259 187.4Z" fill="#0d1e33" stroke="#0d1e33"></path><path d="M333 237.4L300 244.4L336 239.4Z" fill="#543866" stroke="#543866"></path><path d="M285 202.6L300 244.4L333 237.4Z" fill="#cc5577" stroke="#cc5577"></path><path d="M491 300L559 295.3L480 228.3Z" fill="#202846" stroke="#202846"></path><path d="M240 101.7L267 115.7L280 109.9Z" fill="#e56271" stroke="#e56271"></path><path d="M280 109.9L267 115.7L307 170.3Z" fill="#723f71" stroke="#723f71"></path><path d="M300 244.4L349 300L336 239.4Z" fill="#fa7268" stroke="#fa7268"></path><path d="M559 295.3L576 286.3L581 195.6Z" fill="#543866" stroke="#543866"></path><path d="M582 0L575 0L557 31.9Z" fill="#202846" stroke="#202846"></path><path d="M557 31.9L575 0L521 0Z" fill="#383158" stroke="#383158"></path><path d="M650 212.3L643 159.1L614 212.6Z" fill="#914577" stroke="#914577"></path><path d="M614 212.6L643 159.1L587 163.4Z" fill="#e56271" stroke="#e56271"></path><path d="M645 13.7L582 0L557 31.9Z" fill="#cc5577" stroke="#cc5577"></path><path d="M394 0L324 0L351 28.7Z" fill="#202846" stroke="#202846"></path><path d="M351 28.7L273 10.7L356 40.6Z" fill="#0d1e33" stroke="#0d1e33"></path><path d="M606 -13.1L582 0L645 13.7Z" fill="#001220" stroke="#001220"></path><path d="M440 0L434 -51.1L394 0Z" fill="#202846" stroke="#202846"></path><path d="M394 0L434 -51.1L324 0Z" fill="#fa7268" stroke="#fa7268"></path><path d="M497 0L434 -51.1L474 5.9Z" fill="#e56271" stroke="#e56271"></path><path d="M521 0L434 -51.1L497 0Z" fill="#202846" stroke="#202846"></path><path d="M606 -13.1L434 -51.1L521 0Z" fill="#383158" stroke="#383158"></path><path d="M606 -13.1L521 0L575 0Z" fill="#af4c79" stroke="#af4c79"></path><path d="M259 187.4L285 202.6L307 170.3Z" fill="#001220" stroke="#001220"></path><path d="M285 202.6L261 194.6L300 244.4Z" fill="#001220" stroke="#001220"></path><path d="M267 115.7L259 187.4L307 170.3Z" fill="#001220" stroke="#001220"></path><path d="M559 295.3L573 300L576 286.3Z" fill="#e56271" stroke="#e56271"></path><path d="M627 300L650 212.3L614 212.6Z" fill="#e56271" stroke="#e56271"></path><path d="M491 300L573 300L559 295.3Z" fill="#914577" stroke="#914577"></path><path d="M627 300L614 212.6L576 286.3Z" fill="#543866" stroke="#543866"></path><path d="M267 115.7L243 179.1L259 187.4Z" fill="#0d1e33" stroke="#0d1e33"></path><path d="M259 187.4L243 179.1L261 194.6Z" fill="#0d1e33" stroke="#0d1e33"></path><path d="M186 248.3L285 289.1L300 244.4Z" fill="#202846" stroke="#202846"></path><path d="M273 10.7L240 101.7L280 109.9Z" fill="#af4c79" stroke="#af4c79"></path><path d="M267 115.7L234 132.9L243 179.1Z" fill="#af4c79" stroke="#af4c79"></path><path d="M240 101.7L234 132.9L267 115.7Z" fill="#af4c79" stroke="#af4c79"></path><path d="M645 13.7L557 31.9L615 109.6Z" fill="#e56271" stroke="#e56271"></path><path d="M582 0L606 -13.1L575 0Z" fill="#af4c79" stroke="#af4c79"></path><path d="M186 248.3L300 244.4L261 194.6Z" fill="#723f71" stroke="#723f71"></path><path d="M300 244.4L295 300L349 300Z" fill="#202846" stroke="#202846"></path><path d="M285 289.1L295 300L300 244.4Z" fill="#fa7268" stroke="#fa7268"></path><path d="M270 -4.1L273 10.7L324 0Z" fill="#914577" stroke="#914577"></path><path d="M324 0L273 10.7L351 28.7Z" fill="#0d1e33" stroke="#0d1e33"></path><path d="M739 179.6L680 129.3L643 159.1Z" fill="#723f71" stroke="#723f71"></path><path d="M643 159.1L680 129.3L615 109.6Z" fill="#af4c79" stroke="#af4c79"></path><path d="M680 129.3L645 13.7L615 109.6Z" fill="#e56271" stroke="#e56271"></path><path d="M434 -51.1L270 -4.1L324 0Z" fill="#0d1e33" stroke="#0d1e33"></path><path d="M273 10.7L224 0L240 101.7Z" fill="#543866" stroke="#543866"></path><path d="M573 300L627 300L576 286.3Z" fill="#0d1e33" stroke="#0d1e33"></path><path d="M650 212.3L739 179.6L643 159.1Z" fill="#001220" stroke="#001220"></path><path d="M270 -4.1L265 0L273 10.7Z" fill="#af4c79" stroke="#af4c79"></path><path d="M216 327.1L280 313.3L285 289.1Z" fill="#af4c79" stroke="#af4c79"></path><path d="M285 289.1L280 313.3L295 300Z" fill="#543866" stroke="#543866"></path><path d="M295 300L287 351.1L349 300Z" fill="#af4c79" stroke="#af4c79"></path><path d="M349 300L287 351.1L414 300Z" fill="#cc5577" stroke="#cc5577"></path><path d="M414 300L287 351.1L457 300Z" fill="#914577" stroke="#914577"></path><path d="M457 300L287 351.1L491 300Z" fill="#e56271" stroke="#e56271"></path><path d="M287 351.1L648 307.1L573 300Z" fill="#383158" stroke="#383158"></path><path d="M573 300L648 307.1L627 300Z" fill="#202846" stroke="#202846"></path><path d="M655 0L647 0L645 13.7Z" fill="#af4c79" stroke="#af4c79"></path><path d="M645 13.7L647 0L606 -13.1Z" fill="#914577" stroke="#914577"></path><path d="M648 307.1L643 300L627 300Z" fill="#0d1e33" stroke="#0d1e33"></path><path d="M627 300L643 300L650 212.3Z" fill="#cc5577" stroke="#cc5577"></path><path d="M194 158.6L209 191.3L243 179.1Z" fill="#383158" stroke="#383158"></path><path d="M243 179.1L209 191.3L261 194.6Z" fill="#001220" stroke="#001220"></path><path d="M194 158.6L243 179.1L234 132.9Z" fill="#723f71" stroke="#723f71"></path><path d="M194 158.6L234 132.9L170 124.6Z" fill="#af4c79" stroke="#af4c79"></path><path d="M694 0L655 0L645 13.7Z" fill="#202846" stroke="#202846"></path><path d="M647 0L655 0L606 -13.1Z" fill="#fa7268" stroke="#fa7268"></path><path d="M287 351.1L573 300L491 300Z" fill="#001220" stroke="#001220"></path><path d="M643 300L694 255.1L650 212.3Z" fill="#0d1e33" stroke="#0d1e33"></path><path d="M170 124.6L234 132.9L168 109.7Z" fill="#fa7268" stroke="#fa7268"></path><path d="M216 327.1L287 351.1L280 313.3Z" fill="#e56271" stroke="#e56271"></path><path d="M280 313.3L287 351.1L295 300Z" fill="#001220" stroke="#001220"></path><path d="M691 300L694 255.1L643 300Z" fill="#001220" stroke="#001220"></path><path d="M270 -4.1L224 0L265 0Z" fill="#723f71" stroke="#723f71"></path><path d="M265 0L224 0L273 10.7Z" fill="#914577" stroke="#914577"></path><path d="M191 -27.1L224 0L270 -4.1Z" fill="#914577" stroke="#914577"></path><path d="M739 179.6L721 103.7L680 129.3Z" fill="#543866" stroke="#543866"></path><path d="M680 129.3L721 103.7L645 13.7Z" fill="#cc5577" stroke="#cc5577"></path><path d="M721 103.7L694 0L645 13.7Z" fill="#e56271" stroke="#e56271"></path><path d="M655 0L694 0L606 -13.1Z" fill="#723f71" stroke="#723f71"></path><path d="M606 -13.1L960 -39.1L434 -51.1Z" fill="#e56271" stroke="#e56271"></path><path d="M168 109.7L234 132.9L240 101.7Z" fill="#e56271" stroke="#e56271"></path><path d="M194 158.6L175 209.1L209 191.3Z" fill="#0d1e33" stroke="#0d1e33"></path><path d="M209 191.3L186 248.3L261 194.6Z" fill="#723f71" stroke="#723f71"></path><path d="M162 122.4L175 209.1L194 158.6Z" fill="#914577" stroke="#914577"></path><path d="M175 209.1L186 248.3L209 191.3Z" fill="#383158" stroke="#383158"></path><path d="M224 0L181 52.7L240 101.7Z" fill="#cc5577" stroke="#cc5577"></path><path d="M181 52.7L168 109.7L240 101.7Z" fill="#af4c79" stroke="#af4c79"></path><path d="M170 124.6L162 122.4L194 158.6Z" fill="#e56271" stroke="#e56271"></path><path d="M648 307.1L691 300L643 300Z" fill="#914577" stroke="#914577"></path><path d="M694 255.1L739 179.6L650 212.3Z" fill="#0d1e33" stroke="#0d1e33"></path><path d="M770 187.4L739 179.6L694 255.1Z" fill="#914577" stroke="#914577"></path><path d="M144 87.6L162 122.4L168 109.7Z" fill="#0d1e33" stroke="#0d1e33"></path><path d="M168 109.7L162 122.4L170 124.6Z" fill="#001220" stroke="#001220"></path><path d="M721 103.7L743 85.9L694 0Z" fill="#914577" stroke="#914577"></path><path d="M807 159.4L743 85.9L721 103.7Z" fill="#383158" stroke="#383158"></path><path d="M194 300L216 327.1L285 289.1Z" fill="#e56271" stroke="#e56271"></path><path d="M186 248.3L194 300L285 289.1Z" fill="#383158" stroke="#383158"></path><path d="M190 300L194 300L186 248.3Z" fill="#fa7268" stroke="#fa7268"></path><path d="M743 85.9L718 1.9L694 0Z" fill="#e56271" stroke="#e56271"></path><path d="M694 0L741 0L606 -13.1Z" fill="#383158" stroke="#383158"></path><path d="M155 222.3L186 248.3L175 209.1Z" fill="#0d1e33" stroke="#0d1e33"></path><path d="M155 222.3L171 256.4L186 248.3Z" fill="#723f71" stroke="#723f71"></path><path d="M171 256.4L190 300L186 248.3Z" fill="#723f71" stroke="#723f71"></path><path d="M194 300L190 300L216 327.1Z" fill="#723f71" stroke="#723f71"></path><path d="M162 122.4L155 222.3L175 209.1Z" fill="#cc5577" stroke="#cc5577"></path><path d="M171 256.4L180 300L190 300Z" fill="#202846" stroke="#202846"></path><path d="M434 -51.1L191 -27.1L270 -4.1Z" fill="#cc5577" stroke="#cc5577"></path><path d="M224 0L191 -27.1L181 52.7Z" fill="#af4c79" stroke="#af4c79"></path><path d="M181 52.7L144 87.6L168 109.7Z" fill="#af4c79" stroke="#af4c79"></path><path d="M122 92.4L144 87.6L118 35.6Z" fill="#e56271" stroke="#e56271"></path><path d="M162 122.4L61 214.3L155 222.3Z" fill="#202846" stroke="#202846"></path><path d="M156 300L180 300L171 256.4Z" fill="#af4c79" stroke="#af4c79"></path><path d="M190 300L180 300L216 327.1Z" fill="#0d1e33" stroke="#0d1e33"></path><path d="M799 218.3L770 187.4L794 248.4Z" fill="#af4c79" stroke="#af4c79"></path><path d="M739 179.6L807 159.4L721 103.7Z" fill="#202846" stroke="#202846"></path><path d="M802 56.7L741 0L743 85.9Z" fill="#723f71" stroke="#723f71"></path><path d="M743 85.9L741 0L718 1.9Z" fill="#0d1e33" stroke="#0d1e33"></path><path d="M718 1.9L741 0L694 0Z" fill="#0d1e33" stroke="#0d1e33"></path><path d="M857 354.1L744 300L691 300Z" fill="#0d1e33" stroke="#0d1e33"></path><path d="M691 300L744 300L694 255.1Z" fill="#202846" stroke="#202846"></path><path d="M826 300L744 300L857 354.1Z" fill="#914577" stroke="#914577"></path><path d="M118 35.6L144 87.6L181 52.7Z" fill="#383158" stroke="#383158"></path><path d="M144 87.6L122 92.4L162 122.4Z" fill="#723f71" stroke="#723f71"></path><path d="M53 300L156 300L155 222.3Z" fill="#914577" stroke="#914577"></path><path d="M155 222.3L156 300L171 256.4Z" fill="#af4c79" stroke="#af4c79"></path><path d="M180 300L152 355.1L216 327.1Z" fill="#723f71" stroke="#723f71"></path><path d="M799 218.3L795 189.6L770 187.4Z" fill="#914577" stroke="#914577"></path><path d="M770 187.4L807 159.4L739 179.6Z" fill="#202846" stroke="#202846"></path><path d="M127 0L118 35.6L181 52.7Z" fill="#543866" stroke="#543866"></path><path d="M118 35.6L102 91.4L122 92.4Z" fill="#543866" stroke="#543866"></path><path d="M122 92.4L102 91.4L162 122.4Z" fill="#202846" stroke="#202846"></path><path d="M191 -27.1L127 0L181 52.7Z" fill="#e56271" stroke="#e56271"></path><path d="M118 35.6L62 73.9L102 91.4Z" fill="#202846" stroke="#202846"></path><path d="M794 248.4L770 187.4L694 255.1Z" fill="#543866" stroke="#543866"></path><path d="M839 159.3L807 159.4L795 189.6Z" fill="#af4c79" stroke="#af4c79"></path><path d="M795 189.6L807 159.4L770 187.4Z" fill="#001220" stroke="#001220"></path><path d="M744 300L794 248.4L694 255.1Z" fill="#fa7268" stroke="#fa7268"></path><path d="M191 -27.1L121 0L127 0Z" fill="#fa7268" stroke="#fa7268"></path><path d="M127 0L121 0L118 35.6Z" fill="#543866" stroke="#543866"></path><path d="M804 61.9L802 56.7L743 85.9Z" fill="#202846" stroke="#202846"></path><path d="M829 102.6L804 61.9L743 85.9Z" fill="#cc5577" stroke="#cc5577"></path><path d="M53 300L152 355.1L156 300Z" fill="#cc5577" stroke="#cc5577"></path><path d="M156 300L152 355.1L180 300Z" fill="#383158" stroke="#383158"></path><path d="M216 327.1L152 355.1L287 351.1Z" fill="#543866" stroke="#543866"></path><path d="M839 115.6L829 102.6L807 159.4Z" fill="#543866" stroke="#543866"></path><path d="M807 159.4L829 102.6L743 85.9Z" fill="#fa7268" stroke="#fa7268"></path><path d="M838 1.9L818 0L802 56.7Z" fill="#0d1e33" stroke="#0d1e33"></path><path d="M839 159.3L795 189.6L799 218.3Z" fill="#e56271" stroke="#e56271"></path><path d="M882 184.1L839 159.3L799 218.3Z" fill="#af4c79" stroke="#af4c79"></path><path d="M839 159.3L839 115.6L807 159.4Z" fill="#af4c79" stroke="#af4c79"></path><path d="M838 1.9L802 56.7L804 61.9Z" fill="#cc5577" stroke="#cc5577"></path><path d="M826 300L826 262.3L794 248.4Z" fill="#af4c79" stroke="#af4c79"></path><path d="M794 248.4L826 262.3L799 218.3Z" fill="#0d1e33" stroke="#0d1e33"></path><path d="M858 101.9L804 61.9L829 102.6Z" fill="#543866" stroke="#543866"></path><path d="M802 56.7L818 0L741 0Z" fill="#e56271" stroke="#e56271"></path><path d="M741 0L960 -39.1L606 -13.1Z" fill="#001220" stroke="#001220"></path><path d="M11 0L62 73.9L118 35.6Z" fill="#202846" stroke="#202846"></path><path d="M102 91.4L57 111.6L162 122.4Z" fill="#543866" stroke="#543866"></path><path d="M62 73.9L57 111.6L102 91.4Z" fill="#fa7268" stroke="#fa7268"></path><path d="M57 111.6L61 214.3L162 122.4Z" fill="#e56271" stroke="#e56271"></path><path d="M839 159.3L855 118.3L839 115.6Z" fill="#001220" stroke="#001220"></path><path d="M839 115.6L858 101.9L829 102.6Z" fill="#543866" stroke="#543866"></path><path d="M882 184.1L855 118.3L839 159.3Z" fill="#af4c79" stroke="#af4c79"></path><path d="M744 300L826 300L794 248.4Z" fill="#723f71" stroke="#723f71"></path><path d="M826 262.3L882 184.1L799 218.3Z" fill="#723f71" stroke="#723f71"></path><path d="M869 300L826 300L857 354.1Z" fill="#202846" stroke="#202846"></path><path d="M918 146.4L858 101.9L855 118.3Z" fill="#af4c79" stroke="#af4c79"></path><path d="M855 118.3L858 101.9L839 115.6Z" fill="#914577" stroke="#914577"></path><path d="M858 101.9L838 1.9L804 61.9Z" fill="#fa7268" stroke="#fa7268"></path><path d="M818 0L843 -3.1L741 0Z" fill="#914577" stroke="#914577"></path><path d="M880 0L843 -3.1L838 1.9Z" fill="#543866" stroke="#543866"></path><path d="M838 1.9L843 -3.1L818 0Z" fill="#e56271" stroke="#e56271"></path><path d="M42 300L53 300L61 214.3Z" fill="#af4c79" stroke="#af4c79"></path><path d="M61 214.3L53 300L155 222.3Z" fill="#383158" stroke="#383158"></path><path d="M869 300L882 184.1L826 262.3Z" fill="#723f71" stroke="#723f71"></path><path d="M858 101.9L880 0L838 1.9Z" fill="#383158" stroke="#383158"></path><path d="M0 252.3L42 300L61 214.3Z" fill="#cc5577" stroke="#cc5577"></path><path d="M53 300L42 300L152 355.1Z" fill="#af4c79" stroke="#af4c79"></path><path d="M857 354.1L691 300L648 307.1Z" fill="#202846" stroke="#202846"></path><path d="M826 300L869 300L826 262.3Z" fill="#fa7268" stroke="#fa7268"></path><path d="M0 128.6L5 134.7L57 111.6Z" fill="#cc5577" stroke="#cc5577"></path><path d="M57 111.6L0 182.1L61 214.3Z" fill="#914577" stroke="#914577"></path><path d="M0 128.6L57 111.6L0 95.4Z" fill="#e56271" stroke="#e56271"></path><path d="M0 128.6L0 139.7L5 134.7Z" fill="#af4c79" stroke="#af4c79"></path><path d="M5 134.7L0 182.1L57 111.6Z" fill="#383158" stroke="#383158"></path><path d="M916 66.7L880 0L858 101.9Z" fill="#202846" stroke="#202846"></path><path d="M843 -3.1L960 -39.1L741 0Z" fill="#0d1e33" stroke="#0d1e33"></path><path d="M0 95.4L57 111.6L62 73.9Z" fill="#af4c79" stroke="#af4c79"></path><path d="M0 139.7L0 182.1L5 134.7Z" fill="#723f71" stroke="#723f71"></path><path d="M0 14.9L0 95.4L62 73.9Z" fill="#543866" stroke="#543866"></path><path d="M287 351.1L857 354.1L648 307.1Z" fill="#af4c79" stroke="#af4c79"></path><path d="M152 355.1L857 354.1L287 351.1Z" fill="#cc5577" stroke="#cc5577"></path><path d="M857 354.1L882 313.1L869 300Z" fill="#e56271" stroke="#e56271"></path><path d="M869 300L955 234.1L882 184.1Z" fill="#fa7268" stroke="#fa7268"></path><path d="M0 -10.3L11 0L121 0Z" fill="#af4c79" stroke="#af4c79"></path><path d="M121 0L11 0L118 35.6Z" fill="#0d1e33" stroke="#0d1e33"></path><path d="M0 182.1L0 252.3L61 214.3Z" fill="#cc5577" stroke="#cc5577"></path><path d="M0 139.7L-12 190.3L0 182.1Z" fill="#543866" stroke="#543866"></path><path d="M0 182.1L-12 190.3L0 252.3Z" fill="#914577" stroke="#914577"></path><path d="M-48 181.1L-12 190.3L0 139.7Z" fill="#383158" stroke="#383158"></path><path d="M-48 181.1L0 139.7L0 128.6Z" fill="#fa7268" stroke="#fa7268"></path><path d="M-48 181.1L0 128.6L0 95.4Z" fill="#fa7268" stroke="#fa7268"></path><path d="M957 146.7L918 146.4L960 208.3Z" fill="#0d1e33" stroke="#0d1e33"></path><path d="M882 184.1L918 146.4L855 118.3Z" fill="#914577" stroke="#914577"></path><path d="M11 0L0 14.9L62 73.9Z" fill="#cc5577" stroke="#cc5577"></path><path d="M941 95.4L916 66.7L858 101.9Z" fill="#723f71" stroke="#723f71"></path><path d="M0 -10.3L0 0L11 0Z" fill="#e56271" stroke="#e56271"></path><path d="M11 0L0 0L0 14.9Z" fill="#fa7268" stroke="#fa7268"></path><path d="M-44 38.9L-48 181.1L0 95.4Z" fill="#fa7268" stroke="#fa7268"></path><path d="M191 -27.1L0 -10.3L121 0Z" fill="#cc5577" stroke="#cc5577"></path><path d="M-44 38.9L0 95.4L0 14.9Z" fill="#383158" stroke="#383158"></path><path d="M434 -51.1L0 -10.3L191 -27.1Z" fill="#202846" stroke="#202846"></path><path d="M-48 181.1L0 300L0 252.3Z" fill="#543866" stroke="#543866"></path><path d="M0 252.3L0 300L42 300Z" fill="#001220" stroke="#001220"></path><path d="M42 300L0 300L152 355.1Z" fill="#0d1e33" stroke="#0d1e33"></path><path d="M957 146.7L941 95.4L918 146.4Z" fill="#e56271" stroke="#e56271"></path><path d="M918 146.4L941 95.4L858 101.9Z" fill="#914577" stroke="#914577"></path><path d="M916 66.7L951 0L880 0Z" fill="#543866" stroke="#543866"></path><path d="M-44 38.9L0 14.9L0 0Z" fill="#fa7268" stroke="#fa7268"></path><path d="M-12 190.3L-48 181.1L0 252.3Z" fill="#202846" stroke="#202846"></path><path d="M960 208.3L918 146.4L882 184.1Z" fill="#383158" stroke="#383158"></path><path d="M0 -10.3L-44 38.9L0 0Z" fill="#fa7268" stroke="#fa7268"></path><path d="M957 146.7L960 96.7L941 95.4Z" fill="#cc5577" stroke="#cc5577"></path><path d="M941 95.4L960 38.6L916 66.7Z" fill="#001220" stroke="#001220"></path><path d="M960 261.4L955 234.1L869 300Z" fill="#0d1e33" stroke="#0d1e33"></path><path d="M957 146.7L1007 131.6L960 96.7Z" fill="#001220" stroke="#001220"></path><path d="M960 261.4L869 300L960 266.1Z" fill="#723f71" stroke="#723f71"></path><path d="M955 234.1L960 208.3L882 184.1Z" fill="#af4c79" stroke="#af4c79"></path><path d="M960 96.7L960 38.6L941 95.4Z" fill="#af4c79" stroke="#af4c79"></path><path d="M960 38.6L951 0L916 66.7Z" fill="#0d1e33" stroke="#0d1e33"></path><path d="M880 0L960 -39.1L843 -3.1Z" fill="#cc5577" stroke="#cc5577"></path><path d="M960 266.1L869 300L882 313.1Z" fill="#cc5577" stroke="#cc5577"></path><path d="M955 234.1L960 261.4L960 208.3Z" fill="#543866" stroke="#543866"></path><path d="M960 300L960 266.1L882 313.1Z" fill="#af4c79" stroke="#af4c79"></path><path d="M960 38.6L960 0L951 0Z" fill="#fa7268" stroke="#fa7268"></path><path d="M951 0L960 -39.1L880 0Z" fill="#001220" stroke="#001220"></path><path d="M857 354.1L960 300L882 313.1Z" fill="#af4c79" stroke="#af4c79"></path><path d="M960 0L960 -39.1L951 0Z" fill="#383158" stroke="#383158"></path><path d="M857 354.1L984 300L960 300Z" fill="#914577" stroke="#914577"></path><path d="M960 300L984 300L960 266.1Z" fill="#723f71" stroke="#723f71"></path><path d="M960 266.1L984 300L960 261.4Z" fill="#001220" stroke="#001220"></path><path d="M960 261.4L984 300L960 208.3Z" fill="#e56271" stroke="#e56271"></path><path d="M960 208.3L1007 131.6L957 146.7Z" fill="#fa7268" stroke="#fa7268"></path><path d="M960 96.7L1007 131.6L960 38.6Z" fill="#fa7268" stroke="#fa7268"></path><path d="M960 38.6L1007 131.6L960 0Z" fill="#cc5577" stroke="#cc5577"></path><path d="M960 0L1007 131.6L960 -39.1Z" fill="#af4c79" stroke="#af4c79"></path><path d="M984 300L1007 131.6L960 208.3Z" fill="#001220" stroke="#001220"></path></g></svg>