<svg id="visual" viewBox="0 0 900 600" width="900" height="600" xmlns="http://www.w3.org/2000/svg" xmlns:xlink="http://www.w3.org/1999/xlink" version="1.1"><g stroke-width="1" stroke-linejoin="bevel"><path d="M512 294.1L516 307.1L542 295.3Z" fill="#297ea6" stroke="#297ea6"></path><path d="M569 339L583 295.7L542 295.3Z" fill="#297ea6" stroke="#297ea6"></path><path d="M542 295.3L531 237.1L512 294.1Z" fill="#277297" stroke="#277297"></path><path d="M546 231.4L531 237.1L542 295.3Z" fill="#15384f" stroke="#15384f"></path><path d="M516 307.1L569 339L542 295.3Z" fill="#1d4e6b" stroke="#1d4e6b"></path><path d="M569 339L583 331L583 295.7Z" fill="#297ea6" stroke="#297ea6"></path><path d="M583 295.7L546 231.4L542 295.3Z" fill="#19435d" stroke="#19435d"></path><path d="M583 331L595 317.1L583 295.7Z" fill="#246688" stroke="#246688"></path><path d="M514 395.4L536 374.6L516 307.1Z" fill="#205a7a" stroke="#205a7a"></path><path d="M516 307.1L536 374.6L569 339Z" fill="#297ea6" stroke="#297ea6"></path><path d="M632 359.6L595 317.1L583 331Z" fill="#205a7a" stroke="#205a7a"></path><path d="M637 333.1L595 317.1L632 359.6Z" fill="#297ea6" stroke="#297ea6"></path><path d="M637 333.1L621 298.7L595 317.1Z" fill="#297ea6" stroke="#297ea6"></path><path d="M595 317.1L621 298.7L583 295.7Z" fill="#15384f" stroke="#15384f"></path><path d="M583 295.7L621 240L546 231.4Z" fill="#00101c" stroke="#00101c"></path><path d="M530 192.3L468 216.4L531 237.1Z" fill="#1d4e6b" stroke="#1d4e6b"></path><path d="M531 237.1L468 216.4L512 294.1Z" fill="#112e42" stroke="#112e42"></path><path d="M457 402.9L514 395.4L516 307.1Z" fill="#112e42" stroke="#112e42"></path><path d="M410 326.1L516 307.1L512 294.1Z" fill="#19435d" stroke="#19435d"></path><path d="M632 359.6L583 331L609 398.6Z" fill="#297ea6" stroke="#297ea6"></path><path d="M643 175.4L530 192.3L546 231.4Z" fill="#00101c" stroke="#00101c"></path><path d="M546 231.4L530 192.3L531 237.1Z" fill="#1d4e6b" stroke="#1d4e6b"></path><path d="M410 204L445 225L452 159.4Z" fill="#15384f" stroke="#15384f"></path><path d="M468 216.4L445 225L512 294.1Z" fill="#297ea6" stroke="#297ea6"></path><path d="M637 277.3L621 240L583 295.7Z" fill="#19435d" stroke="#19435d"></path><path d="M621 298.7L637 277.3L583 295.7Z" fill="#1d4e6b" stroke="#1d4e6b"></path><path d="M583 331L569 339L609 398.6Z" fill="#246688" stroke="#246688"></path><path d="M621 298.7L674 311.9L637 277.3Z" fill="#246688" stroke="#246688"></path><path d="M445 225L410 326.1L512 294.1Z" fill="#081a28" stroke="#081a28"></path><path d="M609 398.6L569 339L536 374.6Z" fill="#19435d" stroke="#19435d"></path><path d="M637 277.3L641 247.3L621 240Z" fill="#277297" stroke="#277297"></path><path d="M519 126.6L516 164.3L609 127.4Z" fill="#112e42" stroke="#112e42"></path><path d="M706 266L641 247.3L637 277.3Z" fill="#205a7a" stroke="#205a7a"></path><path d="M384 311.3L406 334L410 326.1Z" fill="#081a28" stroke="#081a28"></path><path d="M410 326.1L457 402.9L516 307.1Z" fill="#15384f" stroke="#15384f"></path><path d="M406 334L457 402.9L410 326.1Z" fill="#0c2435" stroke="#0c2435"></path><path d="M586 440.9L536 374.6L514 395.4Z" fill="#0c2435" stroke="#0c2435"></path><path d="M586 440.9L609 398.6L536 374.6Z" fill="#205a7a" stroke="#205a7a"></path><path d="M643 175.4L546 231.4L621 240Z" fill="#00101c" stroke="#00101c"></path><path d="M530 192.3L502 163.7L468 216.4Z" fill="#246688" stroke="#246688"></path><path d="M516 164.3L502 163.7L530 192.3Z" fill="#1d4e6b" stroke="#1d4e6b"></path><path d="M410 204L400 249.4L445 225Z" fill="#15384f" stroke="#15384f"></path><path d="M445 225L400 249.4L410 326.1Z" fill="#277297" stroke="#277297"></path><path d="M416 420.3L470 424.7L457 402.9Z" fill="#1d4e6b" stroke="#1d4e6b"></path><path d="M457 402.9L470 424.7L514 395.4Z" fill="#00101c" stroke="#00101c"></path><path d="M400 249.4L384 311.3L410 326.1Z" fill="#15384f" stroke="#15384f"></path><path d="M406 334L416 420.3L457 402.9Z" fill="#246688" stroke="#246688"></path><path d="M632 359.6L674 311.9L637 333.1Z" fill="#081a28" stroke="#081a28"></path><path d="M637 333.1L674 311.9L621 298.7Z" fill="#081a28" stroke="#081a28"></path><path d="M719 348L674 311.9L632 359.6Z" fill="#0c2435" stroke="#0c2435"></path><path d="M452 159.4L445 225L468 216.4Z" fill="#297ea6" stroke="#297ea6"></path><path d="M400 249.4L364 303L384 311.3Z" fill="#00101c" stroke="#00101c"></path><path d="M495 456.4L586 440.9L514 395.4Z" fill="#19435d" stroke="#19435d"></path><path d="M609 398.6L677 408.7L632 359.6Z" fill="#277297" stroke="#277297"></path><path d="M459 115.6L452 159.4L502 163.7Z" fill="#00101c" stroke="#00101c"></path><path d="M502 163.7L452 159.4L468 216.4Z" fill="#1d4e6b" stroke="#1d4e6b"></path><path d="M369 210.3L394 210.1L355 200.6Z" fill="#0c2435" stroke="#0c2435"></path><path d="M410 204L394 210.1L400 249.4Z" fill="#1d4e6b" stroke="#1d4e6b"></path><path d="M470 424.7L495 456.4L514 395.4Z" fill="#0c2435" stroke="#0c2435"></path><path d="M341 289L364 303L400 249.4Z" fill="#277297" stroke="#277297"></path><path d="M352 365.7L368 374.7L406 334Z" fill="#112e42" stroke="#112e42"></path><path d="M463 482.6L490 471.4L495 456.4Z" fill="#277297" stroke="#277297"></path><path d="M368 374.7L416 420.3L406 334Z" fill="#15384f" stroke="#15384f"></path><path d="M668 205.3L621 240L641 247.3Z" fill="#00101c" stroke="#00101c"></path><path d="M668 205.3L643 175.4L621 240Z" fill="#00101c" stroke="#00101c"></path><path d="M687 219.4L668 205.3L641 247.3Z" fill="#112e42" stroke="#112e42"></path><path d="M369 210.3L372 229.3L394 210.1Z" fill="#246688" stroke="#246688"></path><path d="M394 210.1L372 229.3L400 249.4Z" fill="#112e42" stroke="#112e42"></path><path d="M609 127.4L516 164.3L530 192.3Z" fill="#19435d" stroke="#19435d"></path><path d="M516 164.3L519 126.6L502 163.7Z" fill="#297ea6" stroke="#297ea6"></path><path d="M352 365.7L406 334L384 311.3Z" fill="#277297" stroke="#277297"></path><path d="M706 266L687 219.4L641 247.3Z" fill="#246688" stroke="#246688"></path><path d="M668 205.3L679 184.1L643 175.4Z" fill="#246688" stroke="#246688"></path><path d="M463 482.6L495 456.4L470 424.7Z" fill="#15384f" stroke="#15384f"></path><path d="M495 456.4L595 490.4L586 440.9Z" fill="#081a28" stroke="#081a28"></path><path d="M355 200.6L394 210.1L348 153.7Z" fill="#277297" stroke="#277297"></path><path d="M372 229.3L341 289L400 249.4Z" fill="#277297" stroke="#277297"></path><path d="M737 324L706 266L674 311.9Z" fill="#19435d" stroke="#19435d"></path><path d="M674 311.9L706 266L637 277.3Z" fill="#246688" stroke="#246688"></path><path d="M306 218.4L341 289L372 229.3Z" fill="#081a28" stroke="#081a28"></path><path d="M364 303L352 365.7L384 311.3Z" fill="#277297" stroke="#277297"></path><path d="M648 440.3L677 408.7L609 398.6Z" fill="#19435d" stroke="#19435d"></path><path d="M595 490.4L648 440.3L586 440.9Z" fill="#246688" stroke="#246688"></path><path d="M586 440.9L648 440.3L609 398.6Z" fill="#15384f" stroke="#15384f"></path><path d="M341 289L352 365.7L364 303Z" fill="#0c2435" stroke="#0c2435"></path><path d="M368 374.7L384 429.9L416 420.3Z" fill="#00101c" stroke="#00101c"></path><path d="M615 104.7L609 127.4L637 111.7Z" fill="#297ea6" stroke="#297ea6"></path><path d="M643 175.4L609 127.4L530 192.3Z" fill="#19435d" stroke="#19435d"></path><path d="M733 192.3L679 184.1L687 219.4Z" fill="#246688" stroke="#246688"></path><path d="M687 219.4L679 184.1L668 205.3Z" fill="#277297" stroke="#277297"></path><path d="M524 72.9L459 115.6L519 126.6Z" fill="#297ea6" stroke="#297ea6"></path><path d="M519 126.6L459 115.6L502 163.7Z" fill="#081a28" stroke="#081a28"></path><path d="M348 153.7L394 210.1L410 204Z" fill="#277297" stroke="#277297"></path><path d="M336 430.9L384 429.9L368 374.7Z" fill="#205a7a" stroke="#205a7a"></path><path d="M416 420.3L463 482.6L470 424.7Z" fill="#0c2435" stroke="#0c2435"></path><path d="M385 440.9L463 482.6L416 420.3Z" fill="#297ea6" stroke="#297ea6"></path><path d="M528 524.4L595 490.4L495 456.4Z" fill="#15384f" stroke="#15384f"></path><path d="M398 116.3L410 204L452 159.4Z" fill="#081a28" stroke="#081a28"></path><path d="M369 210.3L355 200.6L372 229.3Z" fill="#297ea6" stroke="#297ea6"></path><path d="M677 408.7L719 348L632 359.6Z" fill="#1d4e6b" stroke="#1d4e6b"></path><path d="M336 430.9L385 440.9L384 429.9Z" fill="#297ea6" stroke="#297ea6"></path><path d="M384 429.9L385 440.9L416 420.3Z" fill="#297ea6" stroke="#297ea6"></path><path d="M595 500.3L595 490.4L528 524.4Z" fill="#081a28" stroke="#081a28"></path><path d="M609 127.4L562 90.7L519 126.6Z" fill="#246688" stroke="#246688"></path><path d="M451 70.7L430 110.4L459 115.6Z" fill="#19435d" stroke="#19435d"></path><path d="M459 115.6L430 110.4L452 159.4Z" fill="#081a28" stroke="#081a28"></path><path d="M679 473.6L670 450.6L648 440.3Z" fill="#297ea6" stroke="#297ea6"></path><path d="M648 440.3L680 443.7L677 408.7Z" fill="#297ea6" stroke="#297ea6"></path><path d="M677 408.7L704 425.9L719 348Z" fill="#19435d" stroke="#19435d"></path><path d="M609 127.4L615 104.7L562 90.7Z" fill="#081a28" stroke="#081a28"></path><path d="M637 111.7L609 127.4L643 175.4Z" fill="#19435d" stroke="#19435d"></path><path d="M414 527.4L485 504.3L463 482.6Z" fill="#081a28" stroke="#081a28"></path><path d="M463 482.6L485 504.3L490 471.4Z" fill="#15384f" stroke="#15384f"></path><path d="M754 334.1L737 324L719 348Z" fill="#112e42" stroke="#112e42"></path><path d="M719 348L737 324L674 311.9Z" fill="#297ea6" stroke="#297ea6"></path><path d="M706 266L733 192.3L687 219.4Z" fill="#15384f" stroke="#15384f"></path><path d="M670 450.6L680 443.7L648 440.3Z" fill="#246688" stroke="#246688"></path><path d="M528 524.4L495 456.4L490 471.4Z" fill="#15384f" stroke="#15384f"></path><path d="M666 510.4L679 473.6L648 440.3Z" fill="#1d4e6b" stroke="#1d4e6b"></path><path d="M686 124.7L637 111.7L643 175.4Z" fill="#297ea6" stroke="#297ea6"></path><path d="M341 289L326 375.6L352 365.7Z" fill="#1d4e6b" stroke="#1d4e6b"></path><path d="M352 365.7L326 375.6L368 374.7Z" fill="#277297" stroke="#277297"></path><path d="M263 338.7L326 375.6L341 289Z" fill="#1d4e6b" stroke="#1d4e6b"></path><path d="M680 443.7L697 429.7L677 408.7Z" fill="#081a28" stroke="#081a28"></path><path d="M726 437.9L704 425.9L697 429.7Z" fill="#205a7a" stroke="#205a7a"></path><path d="M697 429.7L704 425.9L677 408.7Z" fill="#19435d" stroke="#19435d"></path><path d="M430 110.4L398 116.3L452 159.4Z" fill="#1d4e6b" stroke="#1d4e6b"></path><path d="M524 72.9L562 90.7L592 31.9Z" fill="#277297" stroke="#277297"></path><path d="M503 51.6L524 72.9L555 0Z" fill="#0c2435" stroke="#0c2435"></path><path d="M562 90.7L524 72.9L519 126.6Z" fill="#19435d" stroke="#19435d"></path><path d="M378 83.7L389 112.6L398 116.3Z" fill="#205a7a" stroke="#205a7a"></path><path d="M485 504.3L528 524.4L490 471.4Z" fill="#205a7a" stroke="#205a7a"></path><path d="M398 116.3L348 153.7L410 204Z" fill="#0c2435" stroke="#0c2435"></path><path d="M355 200.6L306 218.4L372 229.3Z" fill="#19435d" stroke="#19435d"></path><path d="M378 83.7L398 116.3L395 65.6Z" fill="#00101c" stroke="#00101c"></path><path d="M398 116.3L389 112.6L348 153.7Z" fill="#19435d" stroke="#19435d"></path><path d="M757 412.7L754 334.1L719 348Z" fill="#00101c" stroke="#00101c"></path><path d="M737 324L788 267.4L706 266Z" fill="#1d4e6b" stroke="#1d4e6b"></path><path d="M485 504.3L523 527.6L528 524.4Z" fill="#1d4e6b" stroke="#1d4e6b"></path><path d="M555 565.1L608 524.1L595 500.3Z" fill="#112e42" stroke="#112e42"></path><path d="M788 267.4L733 192.3L706 266Z" fill="#112e42" stroke="#112e42"></path><path d="M679 184.1L686 124.7L643 175.4Z" fill="#205a7a" stroke="#205a7a"></path><path d="M670 450.6L679 473.6L680 443.7Z" fill="#0c2435" stroke="#0c2435"></path><path d="M680 443.7L726 437.9L697 429.7Z" fill="#246688" stroke="#246688"></path><path d="M704 425.9L738 421.3L719 348Z" fill="#297ea6" stroke="#297ea6"></path><path d="M666 510.4L648 440.3L595 490.4Z" fill="#205a7a" stroke="#205a7a"></path><path d="M666 510.4L595 490.4L651 525.4Z" fill="#15384f" stroke="#15384f"></path><path d="M326 375.6L336 430.9L368 374.7Z" fill="#0c2435" stroke="#0c2435"></path><path d="M385 440.9L413 524.1L463 482.6Z" fill="#00101c" stroke="#00101c"></path><path d="M485 504.3L465 560.4L523 527.6Z" fill="#081a28" stroke="#081a28"></path><path d="M688 123.6L686 124.7L699 122.6Z" fill="#00101c" stroke="#00101c"></path><path d="M637 111.7L641 76.6L615 104.7Z" fill="#205a7a" stroke="#205a7a"></path><path d="M348 153.7L306 218.4L355 200.6Z" fill="#081a28" stroke="#081a28"></path><path d="M699 122.6L686 124.7L679 184.1Z" fill="#205a7a" stroke="#205a7a"></path><path d="M686 102.9L641 76.6L637 111.7Z" fill="#246688" stroke="#246688"></path><path d="M470 59.9L451 70.7L459 115.6Z" fill="#00101c" stroke="#00101c"></path><path d="M555 565.1L595 500.3L528 524.4Z" fill="#112e42" stroke="#112e42"></path><path d="M524 72.9L470 59.9L459 115.6Z" fill="#297ea6" stroke="#297ea6"></path><path d="M679 473.6L726 437.9L680 443.7Z" fill="#297ea6" stroke="#297ea6"></path><path d="M733 192.3L699 122.6L679 184.1Z" fill="#00101c" stroke="#00101c"></path><path d="M686 102.9L637 111.7L686 124.7Z" fill="#277297" stroke="#277297"></path><path d="M726 437.9L738 421.3L704 425.9Z" fill="#081a28" stroke="#081a28"></path><path d="M592 31.9L562 90.7L615 104.7Z" fill="#246688" stroke="#246688"></path><path d="M524 72.9L503 51.6L470 59.9Z" fill="#081a28" stroke="#081a28"></path><path d="M686 102.9L686 124.7L688 123.6Z" fill="#246688" stroke="#246688"></path><path d="M699 122.6L686 102.9L688 123.6Z" fill="#205a7a" stroke="#205a7a"></path><path d="M370 521.1L413 524.1L385 440.9Z" fill="#19435d" stroke="#19435d"></path><path d="M651 525.4L595 490.4L595 500.3Z" fill="#277297" stroke="#277297"></path><path d="M679 473.6L747 476.1L726 437.9Z" fill="#00101c" stroke="#00101c"></path><path d="M370 521.1L414 527.4L413 524.1Z" fill="#0c2435" stroke="#0c2435"></path><path d="M413 524.1L414 527.4L463 482.6Z" fill="#00101c" stroke="#00101c"></path><path d="M747 476.1L738 421.3L726 437.9Z" fill="#1d4e6b" stroke="#1d4e6b"></path><path d="M765 476.7L757 412.7L738 421.3Z" fill="#1d4e6b" stroke="#1d4e6b"></path><path d="M738 421.3L757 412.7L719 348Z" fill="#205a7a" stroke="#205a7a"></path><path d="M267 234.3L269 274.1L306 218.4Z" fill="#246688" stroke="#246688"></path><path d="M306 218.4L269 274.1L341 289Z" fill="#19435d" stroke="#19435d"></path><path d="M326 375.6L255 408.9L336 430.9Z" fill="#0c2435" stroke="#0c2435"></path><path d="M395 65.6L398 116.3L430 110.4Z" fill="#205a7a" stroke="#205a7a"></path><path d="M389 112.6L314 115.9L348 153.7Z" fill="#00101c" stroke="#00101c"></path><path d="M263 129.9L267 234.3L306 218.4Z" fill="#0c2435" stroke="#0c2435"></path><path d="M395 65.6L430 110.4L451 70.7Z" fill="#1d4e6b" stroke="#1d4e6b"></path><path d="M608 524.1L651 525.4L595 500.3Z" fill="#277297" stroke="#277297"></path><path d="M617 556.1L651 525.4L608 524.1Z" fill="#112e42" stroke="#112e42"></path><path d="M829 307.9L788 267.4L754 334.1Z" fill="#00101c" stroke="#00101c"></path><path d="M754 334.1L788 267.4L737 324Z" fill="#0c2435" stroke="#0c2435"></path><path d="M737 74.9L696 95.4L699 122.6Z" fill="#15384f" stroke="#15384f"></path><path d="M754 123.7L699 122.6L733 192.3Z" fill="#19435d" stroke="#19435d"></path><path d="M699 122.6L696 95.4L686 102.9Z" fill="#277297" stroke="#277297"></path><path d="M686 102.9L696 95.4L641 76.6Z" fill="#246688" stroke="#246688"></path><path d="M397 16.9L395 65.6L451 70.7Z" fill="#297ea6" stroke="#297ea6"></path><path d="M450 0L451 70.7L470 59.9Z" fill="#297ea6" stroke="#297ea6"></path><path d="M269 274.1L263 338.7L341 289Z" fill="#277297" stroke="#277297"></path><path d="M309 136.3L306 218.4L348 153.7Z" fill="#205a7a" stroke="#205a7a"></path><path d="M269 274.1L242 275.1L263 338.7Z" fill="#246688" stroke="#246688"></path><path d="M509 600L555 565.1L523 527.6Z" fill="#00101c" stroke="#00101c"></path><path d="M523 527.6L555 565.1L528 524.4Z" fill="#205a7a" stroke="#205a7a"></path><path d="M314 115.9L389 112.6L378 83.7Z" fill="#081a28" stroke="#081a28"></path><path d="M314 115.9L309 136.3L348 153.7Z" fill="#0c2435" stroke="#0c2435"></path><path d="M414 527.4L465 560.4L485 504.3Z" fill="#19435d" stroke="#19435d"></path><path d="M593 0L592 31.9L684 27.9Z" fill="#081a28" stroke="#081a28"></path><path d="M641 76.6L592 31.9L615 104.7Z" fill="#19435d" stroke="#19435d"></path><path d="M503 51.6L484 0L470 59.9Z" fill="#15384f" stroke="#15384f"></path><path d="M311 474.3L385 440.9L336 430.9Z" fill="#246688" stroke="#246688"></path><path d="M311 474.3L370 521.1L385 440.9Z" fill="#19435d" stroke="#19435d"></path><path d="M414 527.4L452 582.1L465 560.4Z" fill="#1d4e6b" stroke="#1d4e6b"></path><path d="M555 565.1L617 556.1L608 524.1Z" fill="#00101c" stroke="#00101c"></path><path d="M237 352.7L258 365.9L263 338.7Z" fill="#19435d" stroke="#19435d"></path><path d="M263 338.7L258 365.9L326 375.6Z" fill="#246688" stroke="#246688"></path><path d="M219 200L253 246.4L267 234.3Z" fill="#00101c" stroke="#00101c"></path><path d="M267 234.3L253 246.4L269 274.1Z" fill="#0c2435" stroke="#0c2435"></path><path d="M326 52.6L314 115.9L378 83.7Z" fill="#081a28" stroke="#081a28"></path><path d="M309 136.3L263 129.9L306 218.4Z" fill="#00101c" stroke="#00101c"></path><path d="M253 439.6L311 474.3L336 430.9Z" fill="#1d4e6b" stroke="#1d4e6b"></path><path d="M817 376.9L799 374L816 430.4Z" fill="#19435d" stroke="#19435d"></path><path d="M757 412.7L799 374L754 334.1Z" fill="#15384f" stroke="#15384f"></path><path d="M765 476.7L777 522.6L784 480.6Z" fill="#277297" stroke="#277297"></path><path d="M666 510.4L747 476.1L679 473.6Z" fill="#297ea6" stroke="#297ea6"></path><path d="M747 476.1L777 522.6L765 476.7Z" fill="#112e42" stroke="#112e42"></path><path d="M774 117.7L754 123.7L733 192.3Z" fill="#15384f" stroke="#15384f"></path><path d="M559 0L555 0L592 31.9Z" fill="#15384f" stroke="#15384f"></path><path d="M253 246.4L242 275.1L269 274.1Z" fill="#1d4e6b" stroke="#1d4e6b"></path><path d="M555 565.1L614 571.3L617 556.1Z" fill="#1d4e6b" stroke="#1d4e6b"></path><path d="M617 556.1L687 600L651 525.4Z" fill="#112e42" stroke="#112e42"></path><path d="M581 600L614 571.3L555 565.1Z" fill="#00101c" stroke="#00101c"></path><path d="M257 469.1L308 491.6L311 474.3Z" fill="#0c2435" stroke="#0c2435"></path><path d="M311 474.3L308 491.6L370 521.1Z" fill="#112e42" stroke="#112e42"></path><path d="M234 382.9L255 408.9L258 365.9Z" fill="#246688" stroke="#246688"></path><path d="M258 365.9L255 408.9L326 375.6Z" fill="#0c2435" stroke="#0c2435"></path><path d="M394 600L452 582.1L414 527.4Z" fill="#277297" stroke="#277297"></path><path d="M465 560.4L509 600L523 527.6Z" fill="#297ea6" stroke="#297ea6"></path><path d="M357 549.4L414 527.4L370 521.1Z" fill="#00101c" stroke="#00101c"></path><path d="M231 335.1L237 352.7L263 338.7Z" fill="#246688" stroke="#246688"></path><path d="M452 582.1L458 584.3L465 560.4Z" fill="#0c2435" stroke="#0c2435"></path><path d="M817 376.9L817 363.9L799 374Z" fill="#205a7a" stroke="#205a7a"></path><path d="M799 374L817 363.9L754 334.1Z" fill="#0c2435" stroke="#0c2435"></path><path d="M812 127.6L774 117.7L819 136.4Z" fill="#246688" stroke="#246688"></path><path d="M559 0L592 31.9L593 0Z" fill="#1d4e6b" stroke="#1d4e6b"></path><path d="M592 31.9L555 0L524 72.9Z" fill="#081a28" stroke="#081a28"></path><path d="M555 0L495 0L503 51.6Z" fill="#00101c" stroke="#00101c"></path><path d="M257 66.7L281 119.6L314 115.9Z" fill="#246688" stroke="#246688"></path><path d="M592 31.9L641 76.6L684 27.9Z" fill="#246688" stroke="#246688"></path><path d="M242 275.1L231 335.1L263 338.7Z" fill="#1d4e6b" stroke="#1d4e6b"></path><path d="M231 375.9L234 382.9L258 365.9Z" fill="#277297" stroke="#277297"></path><path d="M747 476.1L666 510.4L716 559.3Z" fill="#19435d" stroke="#19435d"></path><path d="M747 476.1L765 476.7L738 421.3Z" fill="#0c2435" stroke="#0c2435"></path><path d="M495 0L484 0L503 51.6Z" fill="#246688" stroke="#246688"></path><path d="M816 430.4L799 374L757 412.7Z" fill="#1d4e6b" stroke="#1d4e6b"></path><path d="M832 345.9L754 334.1L817 363.9Z" fill="#277297" stroke="#277297"></path><path d="M832 345.9L829 307.9L754 334.1Z" fill="#277297" stroke="#277297"></path><path d="M817 376.9L821 366.7L817 363.9Z" fill="#15384f" stroke="#15384f"></path><path d="M370 30.7L378 83.7L395 65.6Z" fill="#0c2435" stroke="#0c2435"></path><path d="M314 115.9L281 119.6L309 136.3Z" fill="#0c2435" stroke="#0c2435"></path><path d="M208 291.1L212 291.1L203 287.3Z" fill="#15384f" stroke="#15384f"></path><path d="M484 600L509 600L465 560.4Z" fill="#15384f" stroke="#15384f"></path><path d="M685 35.9L641 76.6L696 95.4Z" fill="#081a28" stroke="#081a28"></path><path d="M308 491.6L357 549.4L370 521.1Z" fill="#1d4e6b" stroke="#1d4e6b"></path><path d="M481 600L465 560.4L458 584.3Z" fill="#277297" stroke="#277297"></path><path d="M737 74.9L685 35.9L696 95.4Z" fill="#15384f" stroke="#15384f"></path><path d="M774 117.7L733 192.3L819 136.4Z" fill="#1d4e6b" stroke="#1d4e6b"></path><path d="M754 123.7L737 74.9L699 122.6Z" fill="#205a7a" stroke="#205a7a"></path><path d="M231 375.9L258 365.9L237 352.7Z" fill="#0c2435" stroke="#0c2435"></path><path d="M255 408.9L253 439.6L336 430.9Z" fill="#081a28" stroke="#081a28"></path><path d="M774 117.7L737 74.9L754 123.7Z" fill="#1d4e6b" stroke="#1d4e6b"></path><path d="M213 381L231 375.9L237 352.7Z" fill="#00101c" stroke="#00101c"></path><path d="M481 600L458 584.3L465 600Z" fill="#1d4e6b" stroke="#1d4e6b"></path><path d="M481 600L484 600L465 560.4Z" fill="#1d4e6b" stroke="#1d4e6b"></path><path d="M484 0L450 0L470 59.9Z" fill="#277297" stroke="#277297"></path><path d="M465 600L458 584.3L452 582.1Z" fill="#0c2435" stroke="#0c2435"></path><path d="M509 600L581 600L555 565.1Z" fill="#297ea6" stroke="#297ea6"></path><path d="M716 559.3L666 510.4L651 525.4Z" fill="#1d4e6b" stroke="#1d4e6b"></path><path d="M431 0L397 16.9L451 70.7Z" fill="#19435d" stroke="#19435d"></path><path d="M397 16.9L370 30.7L395 65.6Z" fill="#205a7a" stroke="#205a7a"></path><path d="M257 469.1L253 439.6L199 498.4Z" fill="#277297" stroke="#277297"></path><path d="M220 406.7L253 439.6L255 408.9Z" fill="#19435d" stroke="#19435d"></path><path d="M261 613.3L346 600L357 549.4Z" fill="#0c2435" stroke="#0c2435"></path><path d="M821 366.7L832 345.9L817 363.9Z" fill="#277297" stroke="#277297"></path><path d="M841 391.6L832 345.9L821 366.7Z" fill="#00101c" stroke="#00101c"></path><path d="M404 629.1L465 600L452 582.1Z" fill="#297ea6" stroke="#297ea6"></path><path d="M695 0L684 27.9L744 0Z" fill="#112e42" stroke="#112e42"></path><path d="M685 35.9L684 27.9L641 76.6Z" fill="#0c2435" stroke="#0c2435"></path><path d="M450 0L431 0L451 70.7Z" fill="#081a28" stroke="#081a28"></path><path d="M224 131.9L263 129.9L257 66.7Z" fill="#1d4e6b" stroke="#1d4e6b"></path><path d="M281 119.6L263 129.9L309 136.3Z" fill="#1d4e6b" stroke="#1d4e6b"></path><path d="M242 275.1L211 302L231 335.1Z" fill="#00101c" stroke="#00101c"></path><path d="M212 291.1L242 275.1L203 287.3Z" fill="#0c2435" stroke="#0c2435"></path><path d="M183 350.6L213 381L237 352.7Z" fill="#277297" stroke="#277297"></path><path d="M298 0L337 44.7L370 30.7Z" fill="#112e42" stroke="#112e42"></path><path d="M370 30.7L337 44.7L378 83.7Z" fill="#1d4e6b" stroke="#1d4e6b"></path><path d="M399 0L370 30.7L397 16.9Z" fill="#205a7a" stroke="#205a7a"></path><path d="M212 291.1L211 302L242 275.1Z" fill="#112e42" stroke="#112e42"></path><path d="M716 559.3L651 525.4L687 600Z" fill="#246688" stroke="#246688"></path><path d="M807 456.7L816 430.4L757 412.7Z" fill="#246688" stroke="#246688"></path><path d="M817 376.9L841 391.6L821 366.7Z" fill="#246688" stroke="#246688"></path><path d="M581 600L616 600L614 571.3Z" fill="#0c2435" stroke="#0c2435"></path><path d="M337 44.7L326 52.6L378 83.7Z" fill="#246688" stroke="#246688"></path><path d="M807 456.7L757 412.7L765 476.7Z" fill="#246688" stroke="#246688"></path><path d="M203 287.3L242 275.1L253 246.4Z" fill="#246688" stroke="#246688"></path><path d="M212 291.1L208 291.1L211 302Z" fill="#00101c" stroke="#00101c"></path><path d="M183 350.6L237 352.7L231 335.1Z" fill="#0c2435" stroke="#0c2435"></path><path d="M220 406.7L255 408.9L234 382.9Z" fill="#00101c" stroke="#00101c"></path><path d="M253 439.6L257 469.1L311 474.3Z" fill="#081a28" stroke="#081a28"></path><path d="M784 480.6L807 456.7L765 476.7Z" fill="#205a7a" stroke="#205a7a"></path><path d="M263 129.9L219 200L267 234.3Z" fill="#205a7a" stroke="#205a7a"></path><path d="M431 0L399 0L397 16.9Z" fill="#15384f" stroke="#15384f"></path><path d="M298 0L257 66.7L326 52.6Z" fill="#205a7a" stroke="#205a7a"></path><path d="M687 600L617 556.1L614 571.3Z" fill="#246688" stroke="#246688"></path><path d="M784 480.6L834 490.3L807 456.7Z" fill="#19435d" stroke="#19435d"></path><path d="M219 200L203 287.3L253 246.4Z" fill="#15384f" stroke="#15384f"></path><path d="M208 291.1L203 287.3L211 302Z" fill="#246688" stroke="#246688"></path><path d="M231 375.9L213 381L234 382.9Z" fill="#277297" stroke="#277297"></path><path d="M183 350.6L231 335.1L211 302Z" fill="#246688" stroke="#246688"></path><path d="M213 381L220 406.7L234 382.9Z" fill="#1d4e6b" stroke="#1d4e6b"></path><path d="M900 453.3L841 391.6L816 430.4Z" fill="#0c2435" stroke="#0c2435"></path><path d="M816 430.4L841 391.6L817 376.9Z" fill="#0c2435" stroke="#0c2435"></path><path d="M832 345.9L864 318.1L829 307.9Z" fill="#112e42" stroke="#112e42"></path><path d="M357 549.4L394 600L414 527.4Z" fill="#1d4e6b" stroke="#1d4e6b"></path><path d="M391 600L394 600L357 549.4Z" fill="#00101c" stroke="#00101c"></path><path d="M819 136.4L733 192.3L788 267.4Z" fill="#081a28" stroke="#081a28"></path><path d="M774 117.7L800 104.9L737 74.9Z" fill="#1d4e6b" stroke="#1d4e6b"></path><path d="M695 0L685 0L684 27.9Z" fill="#1d4e6b" stroke="#1d4e6b"></path><path d="M819 136.4L788 267.4L870 162.1Z" fill="#1d4e6b" stroke="#1d4e6b"></path><path d="M812 127.6L799 106.6L774 117.7Z" fill="#297ea6" stroke="#297ea6"></path><path d="M346 600L391 600L357 549.4Z" fill="#277297" stroke="#277297"></path><path d="M868 293.3L788 267.4L829 307.9Z" fill="#277297" stroke="#277297"></path><path d="M812 127.6L800 104.9L799 106.6Z" fill="#112e42" stroke="#112e42"></path><path d="M836 111.7L800 104.9L812 127.6Z" fill="#112e42" stroke="#112e42"></path><path d="M799 106.6L800 104.9L774 117.7Z" fill="#1d4e6b" stroke="#1d4e6b"></path><path d="M684 27.9L685 35.9L744 0Z" fill="#15384f" stroke="#15384f"></path><path d="M684 27.9L685 0L593 0Z" fill="#19435d" stroke="#19435d"></path><path d="M775 525.4L777 522.6L747 476.1Z" fill="#00101c" stroke="#00101c"></path><path d="M807 456.7L834 490.3L816 430.4Z" fill="#277297" stroke="#277297"></path><path d="M716 559.3L775 525.4L747 476.1Z" fill="#112e42" stroke="#112e42"></path><path d="M900 340.7L864 318.1L900 355Z" fill="#205a7a" stroke="#205a7a"></path><path d="M744 0L685 35.9L737 74.9Z" fill="#1d4e6b" stroke="#1d4e6b"></path><path d="M864 318.1L868 293.3L829 307.9Z" fill="#277297" stroke="#277297"></path><path d="M876 316.1L869 293L868 293.3Z" fill="#15384f" stroke="#15384f"></path><path d="M900 194.4L870 162.1L788 267.4Z" fill="#19435d" stroke="#19435d"></path><path d="M616 600L687 600L614 571.3Z" fill="#205a7a" stroke="#205a7a"></path><path d="M716 559.3L788 582.1L775 525.4Z" fill="#205a7a" stroke="#205a7a"></path><path d="M687 600L690 600L716 559.3Z" fill="#1d4e6b" stroke="#1d4e6b"></path><path d="M690 600L717 584.1L716 559.3Z" fill="#1d4e6b" stroke="#1d4e6b"></path><path d="M263 129.9L224 131.9L219 200Z" fill="#1d4e6b" stroke="#1d4e6b"></path><path d="M129 295.3L183 350.6L203 287.3Z" fill="#0c2435" stroke="#0c2435"></path><path d="M257 66.7L263 129.9L281 119.6Z" fill="#15384f" stroke="#15384f"></path><path d="M581 600L570 641.1L616 600Z" fill="#1d4e6b" stroke="#1d4e6b"></path><path d="M616 600L637 656.1L687 600Z" fill="#1d4e6b" stroke="#1d4e6b"></path><path d="M687 600L637 656.1L690 600Z" fill="#205a7a" stroke="#205a7a"></path><path d="M509 600L570 641.1L581 600Z" fill="#15384f" stroke="#15384f"></path><path d="M484 600L570 641.1L509 600Z" fill="#205a7a" stroke="#205a7a"></path><path d="M481 600L570 641.1L484 600Z" fill="#0c2435" stroke="#0c2435"></path><path d="M404 629.1L570 641.1L481 600Z" fill="#0c2435" stroke="#0c2435"></path><path d="M404 629.1L481 600L465 600Z" fill="#1d4e6b" stroke="#1d4e6b"></path><path d="M404 629.1L452 582.1L394 600Z" fill="#1d4e6b" stroke="#1d4e6b"></path><path d="M203 287.3L183 350.6L211 302Z" fill="#081a28" stroke="#081a28"></path><path d="M213 381L172 403.9L220 406.7Z" fill="#1d4e6b" stroke="#1d4e6b"></path><path d="M220 406.7L169 432.3L253 439.6Z" fill="#00101c" stroke="#00101c"></path><path d="M138 224.4L203 287.3L219 200Z" fill="#1d4e6b" stroke="#1d4e6b"></path><path d="M900 340.7L876 316.1L864 318.1Z" fill="#15384f" stroke="#15384f"></path><path d="M864 318.1L876 316.1L868 293.3Z" fill="#297ea6" stroke="#297ea6"></path><path d="M261 613.3L357 549.4L308 491.6Z" fill="#00101c" stroke="#00101c"></path><path d="M391 600L404 629.1L394 600Z" fill="#277297" stroke="#277297"></path><path d="M346 600L404 629.1L391 600Z" fill="#0c2435" stroke="#0c2435"></path><path d="M298 0L326 52.6L337 44.7Z" fill="#246688" stroke="#246688"></path><path d="M326 52.6L257 66.7L314 115.9Z" fill="#00101c" stroke="#00101c"></path><path d="M637 656.1L718 600L690 600Z" fill="#1d4e6b" stroke="#1d4e6b"></path><path d="M690 600L718 600L717 584.1Z" fill="#0c2435" stroke="#0c2435"></path><path d="M717 584.1L788 582.1L716 559.3Z" fill="#15384f" stroke="#15384f"></path><path d="M819 136.4L836 111.7L812 127.6Z" fill="#1d4e6b" stroke="#1d4e6b"></path><path d="M774 0L744 0L790 13.7Z" fill="#0c2435" stroke="#0c2435"></path><path d="M870 162.1L836 111.7L819 136.4Z" fill="#112e42" stroke="#112e42"></path><path d="M788 267.4L868 293.3L900 194.4Z" fill="#0c2435" stroke="#0c2435"></path><path d="M777 522.6L816 515.6L784 480.6Z" fill="#297ea6" stroke="#297ea6"></path><path d="M900 340.7L900 310.1L876 316.1Z" fill="#277297" stroke="#277297"></path><path d="M821 560.4L816 515.6L777 522.6Z" fill="#15384f" stroke="#15384f"></path><path d="M821 560.4L777 522.6L775 525.4Z" fill="#1d4e6b" stroke="#1d4e6b"></path><path d="M816 515.6L834 490.3L784 480.6Z" fill="#112e42" stroke="#112e42"></path><path d="M744 0L737 74.9L790 13.7Z" fill="#081a28" stroke="#081a28"></path><path d="M900 268.9L868 293.3L869 293Z" fill="#277297" stroke="#277297"></path><path d="M183 350.6L172 403.9L213 381Z" fill="#205a7a" stroke="#205a7a"></path><path d="M257 469.1L186 532.4L308 491.6Z" fill="#19435d" stroke="#19435d"></path><path d="M143 414.7L172 403.9L130 400.6Z" fill="#081a28" stroke="#081a28"></path><path d="M864 318.1L832 345.9L900 355Z" fill="#1d4e6b" stroke="#1d4e6b"></path><path d="M876 316.1L900 310.1L869 293Z" fill="#205a7a" stroke="#205a7a"></path><path d="M900 310.1L900 268.9L869 293Z" fill="#246688" stroke="#246688"></path><path d="M399 0L298 0L370 30.7Z" fill="#1d4e6b" stroke="#1d4e6b"></path><path d="M900 355L832 345.9L841 391.6Z" fill="#277297" stroke="#277297"></path><path d="M404 629.1L637 656.1L570 641.1Z" fill="#246688" stroke="#246688"></path><path d="M570 641.1L637 656.1L616 600Z" fill="#277297" stroke="#277297"></path><path d="M928 429.3L900 355L841 391.6Z" fill="#297ea6" stroke="#297ea6"></path><path d="M685 0L693 -43.1L593 0Z" fill="#297ea6" stroke="#297ea6"></path><path d="M593 0L693 -43.1L559 0Z" fill="#19435d" stroke="#19435d"></path><path d="M559 0L693 -43.1L555 0Z" fill="#081a28" stroke="#081a28"></path><path d="M555 0L693 -43.1L495 0Z" fill="#246688" stroke="#246688"></path><path d="M495 0L693 -43.1L484 0Z" fill="#277297" stroke="#277297"></path><path d="M484 0L693 -43.1L450 0Z" fill="#19435d" stroke="#19435d"></path><path d="M450 0L693 -43.1L431 0Z" fill="#1d4e6b" stroke="#1d4e6b"></path><path d="M431 0L186 -35.1L399 0Z" fill="#15384f" stroke="#15384f"></path><path d="M399 0L186 -35.1L298 0Z" fill="#00101c" stroke="#00101c"></path><path d="M695 0L693 -43.1L685 0Z" fill="#081a28" stroke="#081a28"></path><path d="M744 0L693 -43.1L695 0Z" fill="#277297" stroke="#277297"></path><path d="M192 113.6L171 166.6L224 131.9Z" fill="#15384f" stroke="#15384f"></path><path d="M224 131.9L171 166.6L219 200Z" fill="#297ea6" stroke="#297ea6"></path><path d="M192 113.6L224 131.9L223 53.9Z" fill="#00101c" stroke="#00101c"></path><path d="M223 53.9L224 131.9L257 66.7Z" fill="#112e42" stroke="#112e42"></path><path d="M143 414.7L169 432.3L172 403.9Z" fill="#246688" stroke="#246688"></path><path d="M172 403.9L169 432.3L220 406.7Z" fill="#19435d" stroke="#19435d"></path><path d="M169 432.3L199 498.4L253 439.6Z" fill="#1d4e6b" stroke="#1d4e6b"></path><path d="M790 13.7L737 74.9L800 104.9Z" fill="#297ea6" stroke="#297ea6"></path><path d="M744 0L774 0L693 -43.1Z" fill="#15384f" stroke="#15384f"></path><path d="M790 13.7L800 104.9L854 72.6Z" fill="#00101c" stroke="#00101c"></path><path d="M854 72.6L800 104.9L836 111.7Z" fill="#081a28" stroke="#081a28"></path><path d="M900 268.9L900 194.4L868 293.3Z" fill="#0c2435" stroke="#0c2435"></path><path d="M923 130.3L854 72.6L836 111.7Z" fill="#205a7a" stroke="#205a7a"></path><path d="M805 602.3L788 582.1L718 600Z" fill="#205a7a" stroke="#205a7a"></path><path d="M718 600L788 582.1L717 584.1Z" fill="#1d4e6b" stroke="#1d4e6b"></path><path d="M816 515.6L900 523.1L834 490.3Z" fill="#15384f" stroke="#15384f"></path><path d="M298 0L223 53.9L257 66.7Z" fill="#246688" stroke="#246688"></path><path d="M788 582.1L821 560.4L775 525.4Z" fill="#15384f" stroke="#15384f"></path><path d="M834 490.3L900 453.3L816 430.4Z" fill="#081a28" stroke="#081a28"></path><path d="M142 198.4L219 200L171 166.6Z" fill="#081a28" stroke="#081a28"></path><path d="M142 198.4L138 224.4L219 200Z" fill="#0c2435" stroke="#0c2435"></path><path d="M923 130.3L836 111.7L870 162.1Z" fill="#00101c" stroke="#00101c"></path><path d="M900 194.4L900 162.3L870 162.1Z" fill="#112e42" stroke="#112e42"></path><path d="M102 125.6L142 198.4L171 166.6Z" fill="#1d4e6b" stroke="#1d4e6b"></path><path d="M117 111.6L171 166.6L192 113.6Z" fill="#00101c" stroke="#00101c"></path><path d="M138 224.4L129 295.3L203 287.3Z" fill="#081a28" stroke="#081a28"></path><path d="M127 361L172 403.9L183 350.6Z" fill="#297ea6" stroke="#297ea6"></path><path d="M169 432.3L159 463.3L199 498.4Z" fill="#205a7a" stroke="#205a7a"></path><path d="M123 456.7L159 463.3L169 432.3Z" fill="#297ea6" stroke="#297ea6"></path><path d="M119 341.7L124 331.9L101 307.3Z" fill="#1d4e6b" stroke="#1d4e6b"></path><path d="M129 295.3L124 331.9L183 350.6Z" fill="#1d4e6b" stroke="#1d4e6b"></path><path d="M900 470.6L900 453.3L834 490.3Z" fill="#19435d" stroke="#19435d"></path><path d="M124 331.9L127 361L183 350.6Z" fill="#1d4e6b" stroke="#1d4e6b"></path><path d="M86 377.4L130 400.6L127 361Z" fill="#277297" stroke="#277297"></path><path d="M127 361L130 400.6L172 403.9Z" fill="#112e42" stroke="#112e42"></path><path d="M143 414.7L123 456.7L169 432.3Z" fill="#15384f" stroke="#15384f"></path><path d="M101 307.3L124 331.9L129 295.3Z" fill="#277297" stroke="#277297"></path><path d="M124 331.9L119 341.7L127 361Z" fill="#081a28" stroke="#081a28"></path><path d="M101 307.3L129 295.3L138 224.4Z" fill="#205a7a" stroke="#205a7a"></path><path d="M123 456.7L165 490.6L159 463.3Z" fill="#19435d" stroke="#19435d"></path><path d="M159 463.3L165 490.6L199 498.4Z" fill="#081a28" stroke="#081a28"></path><path d="M186 532.4L261 613.3L308 491.6Z" fill="#112e42" stroke="#112e42"></path><path d="M900 523.1L900 470.6L834 490.3Z" fill="#112e42" stroke="#112e42"></path><path d="M788 582.1L805 602.3L821 560.4Z" fill="#00101c" stroke="#00101c"></path><path d="M821 560.4L900 523.1L816 515.6Z" fill="#0c2435" stroke="#0c2435"></path><path d="M637 656.1L805 602.3L718 600Z" fill="#00101c" stroke="#00101c"></path><path d="M186 532.4L257 469.1L199 498.4Z" fill="#112e42" stroke="#112e42"></path><path d="M346 600L261 613.3L404 629.1Z" fill="#246688" stroke="#246688"></path><path d="M404 629.1L180 639.1L637 656.1Z" fill="#112e42" stroke="#112e42"></path><path d="M181 525.4L186 532.4L199 498.4Z" fill="#081a28" stroke="#081a28"></path><path d="M165 490.6L181 525.4L199 498.4Z" fill="#00101c" stroke="#00101c"></path><path d="M900 470.6L928 429.3L900 453.3Z" fill="#246688" stroke="#246688"></path><path d="M900 453.3L928 429.3L841 391.6Z" fill="#1d4e6b" stroke="#1d4e6b"></path><path d="M900 355L928 429.3L900 340.7Z" fill="#081a28" stroke="#081a28"></path><path d="M900 340.7L951 195.4L900 310.1Z" fill="#00101c" stroke="#00101c"></path><path d="M900 310.1L951 195.4L900 268.9Z" fill="#081a28" stroke="#081a28"></path><path d="M951 195.4L900 162.3L900 194.4Z" fill="#15384f" stroke="#15384f"></path><path d="M951 195.4L923 130.3L900 162.3Z" fill="#277297" stroke="#277297"></path><path d="M185 0L192 38.7L223 53.9Z" fill="#1d4e6b" stroke="#1d4e6b"></path><path d="M223 53.9L192 38.7L192 113.6Z" fill="#112e42" stroke="#112e42"></path><path d="M119 341.7L86 377.4L127 361Z" fill="#246688" stroke="#246688"></path><path d="M46 314.1L101 307.3L29 216.3Z" fill="#00101c" stroke="#00101c"></path><path d="M69 149.4L138 224.4L142 198.4Z" fill="#112e42" stroke="#112e42"></path><path d="M951 195.4L900 194.4L900 268.9Z" fill="#00101c" stroke="#00101c"></path><path d="M900 162.3L923 130.3L870 162.1Z" fill="#15384f" stroke="#15384f"></path><path d="M854 72.6L884 14.9L790 13.7Z" fill="#00101c" stroke="#00101c"></path><path d="M130 400.6L123 456.7L143 414.7Z" fill="#15384f" stroke="#15384f"></path><path d="M139 524.4L170 570.3L181 525.4Z" fill="#205a7a" stroke="#205a7a"></path><path d="M170 570.3L210 600L186 532.4Z" fill="#0c2435" stroke="#0c2435"></path><path d="M84 470.3L123 456.7L60 429.9Z" fill="#112e42" stroke="#112e42"></path><path d="M928 429.3L951 195.4L900 340.7Z" fill="#15384f" stroke="#15384f"></path><path d="M900 470.6L900 523.1L928 429.3Z" fill="#19435d" stroke="#19435d"></path><path d="M900 547.4L900 523.1L821 560.4Z" fill="#246688" stroke="#246688"></path><path d="M186 532.4L210 600L261 613.3Z" fill="#112e42" stroke="#112e42"></path><path d="M170 570.3L186 532.4L181 525.4Z" fill="#246688" stroke="#246688"></path><path d="M900 33.6L900 59.9L949 0Z" fill="#1d4e6b" stroke="#1d4e6b"></path><path d="M923 130.3L900 59.9L854 72.6Z" fill="#246688" stroke="#246688"></path><path d="M790 13.7L900 0L774 0Z" fill="#081a28" stroke="#081a28"></path><path d="M774 0L900 0L693 -43.1Z" fill="#277297" stroke="#277297"></path><path d="M101 307.3L86 377.4L119 341.7Z" fill="#1d4e6b" stroke="#1d4e6b"></path><path d="M900 600L900 547.4L821 560.4Z" fill="#277297" stroke="#277297"></path><path d="M900 523.1L946 592.1L928 429.3Z" fill="#19435d" stroke="#19435d"></path><path d="M139 524.4L165 490.6L123 456.7Z" fill="#00101c" stroke="#00101c"></path><path d="M139 524.4L181 525.4L165 490.6Z" fill="#297ea6" stroke="#297ea6"></path><path d="M155 30.6L117 111.6L192 113.6Z" fill="#081a28" stroke="#081a28"></path><path d="M101 307.3L46 314.1L86 377.4Z" fill="#19435d" stroke="#19435d"></path><path d="M84 470.3L139 524.4L123 456.7Z" fill="#00101c" stroke="#00101c"></path><path d="M186 -35.1L185 0L298 0Z" fill="#246688" stroke="#246688"></path><path d="M298 0L185 0L223 53.9Z" fill="#15384f" stroke="#15384f"></path><path d="M192 38.7L155 30.6L192 113.6Z" fill="#205a7a" stroke="#205a7a"></path><path d="M900 33.6L854 72.6L900 59.9Z" fill="#1d4e6b" stroke="#1d4e6b"></path><path d="M900 33.6L884 14.9L854 72.6Z" fill="#277297" stroke="#277297"></path><path d="M900 26.7L900 33.6L949 0Z" fill="#15384f" stroke="#15384f"></path><path d="M164 8.9L155 30.6L192 38.7Z" fill="#205a7a" stroke="#205a7a"></path><path d="M42 140.4L102 125.6L39 62.7Z" fill="#297ea6" stroke="#297ea6"></path><path d="M117 111.6L102 125.6L171 166.6Z" fill="#297ea6" stroke="#297ea6"></path><path d="M186 -35.1L175 0L185 0Z" fill="#081a28" stroke="#081a28"></path><path d="M185 0L164 8.9L192 38.7Z" fill="#15384f" stroke="#15384f"></path><path d="M900 0L900 26.7L949 0Z" fill="#297ea6" stroke="#297ea6"></path><path d="M900 33.6L900 26.7L884 14.9Z" fill="#112e42" stroke="#112e42"></path><path d="M175 0L164 8.9L185 0Z" fill="#0c2435" stroke="#0c2435"></path><path d="M42 140.4L69 149.4L102 125.6Z" fill="#1d4e6b" stroke="#1d4e6b"></path><path d="M118 549.1L149 579.1L139 524.4Z" fill="#277297" stroke="#277297"></path><path d="M139 524.4L149 579.1L170 570.3Z" fill="#205a7a" stroke="#205a7a"></path><path d="M170 570.3L149 600L210 600Z" fill="#19435d" stroke="#19435d"></path><path d="M60 429.9L123 456.7L130 400.6Z" fill="#00101c" stroke="#00101c"></path><path d="M693 -43.1L186 -35.1L431 0Z" fill="#112e42" stroke="#112e42"></path><path d="M130 -37.1L121 0L164 8.9Z" fill="#246688" stroke="#246688"></path><path d="M52 43.7L117 111.6L155 30.6Z" fill="#246688" stroke="#246688"></path><path d="M949 0L900 59.9L923 130.3Z" fill="#205a7a" stroke="#205a7a"></path><path d="M900 26.7L900 0L884 14.9Z" fill="#0c2435" stroke="#0c2435"></path><path d="M884 14.9L900 0L790 13.7Z" fill="#15384f" stroke="#15384f"></path><path d="M84 470.3L118 549.1L139 524.4Z" fill="#0c2435" stroke="#0c2435"></path><path d="M637 656.1L900 600L805 602.3Z" fill="#205a7a" stroke="#205a7a"></path><path d="M805 602.3L900 600L821 560.4Z" fill="#19435d" stroke="#19435d"></path><path d="M900 547.4L946 592.1L900 523.1Z" fill="#297ea6" stroke="#297ea6"></path><path d="M121 0L155 30.6L164 8.9Z" fill="#15384f" stroke="#15384f"></path><path d="M102 125.6L69 149.4L142 198.4Z" fill="#19435d" stroke="#19435d"></path><path d="M86 377.4L60 429.9L130 400.6Z" fill="#297ea6" stroke="#297ea6"></path><path d="M29 216.3L101 307.3L138 224.4Z" fill="#19435d" stroke="#19435d"></path><path d="M149 579.1L149 600L170 570.3Z" fill="#246688" stroke="#246688"></path><path d="M210 600L180 639.1L261 613.3Z" fill="#205a7a" stroke="#205a7a"></path><path d="M101 599.3L149 600L149 579.1Z" fill="#246688" stroke="#246688"></path><path d="M56 423.6L60 429.9L86 377.4Z" fill="#00101c" stroke="#00101c"></path><path d="M85 600L101 599.3L118 549.1Z" fill="#112e42" stroke="#112e42"></path><path d="M149 600L180 639.1L210 600Z" fill="#19435d" stroke="#19435d"></path><path d="M261 613.3L180 639.1L404 629.1Z" fill="#19435d" stroke="#19435d"></path><path d="M33 396L56 423.6L86 377.4Z" fill="#205a7a" stroke="#205a7a"></path><path d="M85 600L118 549.1L39 600Z" fill="#246688" stroke="#246688"></path><path d="M637 656.1L914 600L900 600Z" fill="#297ea6" stroke="#297ea6"></path><path d="M900 600L914 600L900 547.4Z" fill="#15384f" stroke="#15384f"></path><path d="M928 429.3L946 592.1L951 195.4Z" fill="#297ea6" stroke="#297ea6"></path><path d="M130 -37.1L164 8.9L175 0Z" fill="#112e42" stroke="#112e42"></path><path d="M12 376.7L86 377.4L46 314.1Z" fill="#081a28" stroke="#081a28"></path><path d="M12 376.7L33 396L86 377.4Z" fill="#19435d" stroke="#19435d"></path><path d="M0 452.4L17 482.1L60 429.9Z" fill="#15384f" stroke="#15384f"></path><path d="M42 140.4L29 216.3L69 149.4Z" fill="#205a7a" stroke="#205a7a"></path><path d="M69 149.4L29 216.3L138 224.4Z" fill="#081a28" stroke="#081a28"></path><path d="M130 -37.1L116 0L121 0Z" fill="#112e42" stroke="#112e42"></path><path d="M121 0L116 0L155 30.6Z" fill="#19435d" stroke="#19435d"></path><path d="M39 62.7L102 125.6L117 111.6Z" fill="#277297" stroke="#277297"></path><path d="M914 600L946 592.1L900 547.4Z" fill="#246688" stroke="#246688"></path><path d="M130 -37.1L108 0L116 0Z" fill="#205a7a" stroke="#205a7a"></path><path d="M116 0L108 0L155 30.6Z" fill="#0c2435" stroke="#0c2435"></path><path d="M951 195.4L949 0L923 130.3Z" fill="#1d4e6b" stroke="#1d4e6b"></path><path d="M900 0L949 0L693 -43.1Z" fill="#297ea6" stroke="#297ea6"></path><path d="M0 -54.1L130 -37.1L186 -35.1Z" fill="#205a7a" stroke="#205a7a"></path><path d="M186 -35.1L130 -37.1L175 0Z" fill="#277297" stroke="#277297"></path><path d="M0 349.9L12 376.7L46 314.1Z" fill="#246688" stroke="#246688"></path><path d="M33 396L0 434.7L56 423.6Z" fill="#205a7a" stroke="#205a7a"></path><path d="M118 549.1L101 599.3L149 579.1Z" fill="#081a28" stroke="#081a28"></path><path d="M0 211.6L9 238.4L29 216.3Z" fill="#19435d" stroke="#19435d"></path><path d="M29 216.3L9 238.4L46 314.1Z" fill="#0c2435" stroke="#0c2435"></path><path d="M17 482.1L84 470.3L60 429.9Z" fill="#112e42" stroke="#112e42"></path><path d="M149 600L87 640.1L180 639.1Z" fill="#112e42" stroke="#112e42"></path><path d="M85 600L101 605.3L101 599.3Z" fill="#081a28" stroke="#081a28"></path><path d="M101 599.3L101 605.3L149 600Z" fill="#246688" stroke="#246688"></path><path d="M9 238.4L0 270.3L46 314.1Z" fill="#1d4e6b" stroke="#1d4e6b"></path><path d="M-25 252.1L0 261.4L9 238.4Z" fill="#081a28" stroke="#081a28"></path><path d="M9 238.4L0 261.4L0 270.3Z" fill="#00101c" stroke="#00101c"></path><path d="M-27 325L0 349.9L46 314.1Z" fill="#1d4e6b" stroke="#1d4e6b"></path><path d="M0 389.6L3 403.4L33 396Z" fill="#112e42" stroke="#112e42"></path><path d="M0 169.1L29 216.3L42 140.4Z" fill="#112e42" stroke="#112e42"></path><path d="M0 169.1L0 211.6L29 216.3Z" fill="#081a28" stroke="#081a28"></path><path d="M0 389.6L33 396L12 376.7Z" fill="#205a7a" stroke="#205a7a"></path><path d="M0 349.9L0 389.6L12 376.7Z" fill="#19435d" stroke="#19435d"></path><path d="M10 492.6L118 549.1L84 470.3Z" fill="#081a28" stroke="#081a28"></path><path d="M101 605.3L87 640.1L149 600Z" fill="#1d4e6b" stroke="#1d4e6b"></path><path d="M0 389.6L0 399L3 403.4Z" fill="#246688" stroke="#246688"></path><path d="M0 452.4L60 429.9L56 423.6Z" fill="#1d4e6b" stroke="#1d4e6b"></path><path d="M-4 22.9L52 43.7L0 0Z" fill="#00101c" stroke="#00101c"></path><path d="M108 0L52 43.7L155 30.6Z" fill="#15384f" stroke="#15384f"></path><path d="M52 43.7L39 62.7L117 111.6Z" fill="#00101c" stroke="#00101c"></path><path d="M0 112.7L0 169.1L42 140.4Z" fill="#0c2435" stroke="#0c2435"></path><path d="M0 434.7L33 396L3 403.4Z" fill="#297ea6" stroke="#297ea6"></path><path d="M0 399L0 434.7L3 403.4Z" fill="#297ea6" stroke="#297ea6"></path><path d="M0 434.7L0 452.4L56 423.6Z" fill="#246688" stroke="#246688"></path><path d="M0 452.4L10 492.6L17 482.1Z" fill="#205a7a" stroke="#205a7a"></path><path d="M17 482.1L10 492.6L84 470.3Z" fill="#15384f" stroke="#15384f"></path><path d="M0 169.1L-25 252.1L0 211.6Z" fill="#112e42" stroke="#112e42"></path><path d="M0 211.6L-25 252.1L9 238.4Z" fill="#1d4e6b" stroke="#1d4e6b"></path><path d="M0 261.4L-25 252.1L0 270.3Z" fill="#19435d" stroke="#19435d"></path><path d="M0 270.3L-27 325L46 314.1Z" fill="#15384f" stroke="#15384f"></path><path d="M0 349.9L-27 325L0 389.6Z" fill="#081a28" stroke="#081a28"></path><path d="M0 389.6L-27 325L0 399Z" fill="#112e42" stroke="#112e42"></path><path d="M0 399L-27 325L0 434.7Z" fill="#19435d" stroke="#19435d"></path><path d="M0 434.7L-27 325L0 452.4Z" fill="#112e42" stroke="#112e42"></path><path d="M-25 252.1L-27 325L0 270.3Z" fill="#0c2435" stroke="#0c2435"></path><path d="M-1 69.7L0 112.7L39 62.7Z" fill="#1d4e6b" stroke="#1d4e6b"></path><path d="M39 62.7L0 112.7L42 140.4Z" fill="#0c2435" stroke="#0c2435"></path><path d="M0 169.1L0 112.7L-25 252.1Z" fill="#00101c" stroke="#00101c"></path><path d="M39 600L87 640.1L85 600Z" fill="#15384f" stroke="#15384f"></path><path d="M85 600L87 640.1L101 605.3Z" fill="#0c2435" stroke="#0c2435"></path><path d="M180 639.1L87 640.1L637 656.1Z" fill="#081a28" stroke="#081a28"></path><path d="M0 559.3L39 600L118 549.1Z" fill="#246688" stroke="#246688"></path><path d="M-4 22.9L39 62.7L52 43.7Z" fill="#15384f" stroke="#15384f"></path><path d="M-4 22.9L-1 69.7L39 62.7Z" fill="#246688" stroke="#246688"></path><path d="M0 112.7L-1 69.7L-25 252.1Z" fill="#081a28" stroke="#081a28"></path><path d="M0 559.3L118 549.1L10 492.6Z" fill="#277297" stroke="#277297"></path><path d="M0 559.3L33 600L39 600Z" fill="#205a7a" stroke="#205a7a"></path><path d="M39 600L33 600L87 640.1Z" fill="#277297" stroke="#277297"></path><path d="M-27 325L0 559.3L0 452.4Z" fill="#00101c" stroke="#00101c"></path><path d="M0 452.4L0 559.3L10 492.6Z" fill="#00101c" stroke="#00101c"></path><path d="M0 0L52 43.7L108 0Z" fill="#15384f" stroke="#15384f"></path><path d="M-1 69.7L-4 22.9L-25 252.1Z" fill="#19435d" stroke="#19435d"></path><path d="M0 -54.1L0 0L108 0Z" fill="#00101c" stroke="#00101c"></path><path d="M-27 325L0 600L0 559.3Z" fill="#112e42" stroke="#112e42"></path><path d="M0 559.3L0 600L33 600Z" fill="#205a7a" stroke="#205a7a"></path><path d="M33 600L0 603.1L87 640.1Z" fill="#1d4e6b" stroke="#1d4e6b"></path><path d="M-27 325L0 603.1L0 600Z" fill="#15384f" stroke="#15384f"></path><path d="M0 600L0 603.1L33 600Z" fill="#00101c" stroke="#00101c"></path><path d="M130 -37.1L0 -54.1L108 0Z" fill="#1d4e6b" stroke="#1d4e6b"></path><path d="M0 0L0 -54.1L-4 22.9Z" fill="#277297" stroke="#277297"></path><path d="M-4 22.9L0 -54.1L-25 252.1Z" fill="#0c2435" stroke="#0c2435"></path><path d="M693 -43.1L0 -54.1L186 -35.1Z" fill="#00101c" stroke="#00101c"></path></g></svg>