<svg id="visual" viewBox="0 0 960 300" width="960" height="300" xmlns="http://www.w3.org/2000/svg" xmlns:xlink="http://www.w3.org/1999/xlink" version="1.1"><path d="M825 300L863 300L863 287L901 287L901 274L757 274L757 261L815 261L815 248L882 248L882 235L863 235L863 222L853 222L853 209L805 209L805 196L834 196L834 183L738 183L738 170L882 170L882 157L930 157L930 143L796 143L796 130L901 130L901 117L863 117L863 104L805 104L805 91L815 91L815 78L805 78L805 65L863 65L863 52L786 52L786 39L834 39L834 26L949 26L949 13L729 13L729 0L960 0L960 13L960 13L960 26L960 26L960 39L960 39L960 52L960 52L960 65L960 65L960 78L960 78L960 91L960 91L960 104L960 104L960 117L960 117L960 130L960 130L960 143L960 143L960 157L960 157L960 170L960 170L960 183L960 183L960 196L960 196L960 209L960 209L960 222L960 222L960 235L960 235L960 248L960 248L960 261L960 261L960 274L960 274L960 287L960 287L960 300L960 300Z" fill="#fa7268"></path><path d="M805 300L853 300L853 287L873 287L873 274L719 274L719 261L738 261L738 248L825 248L825 235L767 235L767 222L825 222L825 209L757 209L757 196L825 196L825 183L661 183L661 170L786 170L786 157L863 157L863 143L757 143L757 130L873 130L873 117L834 117L834 104L777 104L777 91L729 91L729 78L719 78L719 65L844 65L844 52L757 52L757 39L825 39L825 26L873 26L873 13L661 13L661 0L730 0L730 13L950 13L950 26L835 26L835 39L787 39L787 52L864 52L864 65L806 65L806 78L816 78L816 91L806 91L806 104L864 104L864 117L902 117L902 130L797 130L797 143L931 143L931 157L883 157L883 170L739 170L739 183L835 183L835 196L806 196L806 209L854 209L854 222L864 222L864 235L883 235L883 248L816 248L816 261L758 261L758 274L902 274L902 287L864 287L864 300L826 300Z" fill="#eb6066"></path><path d="M796 300L844 300L844 287L825 287L825 274L661 274L661 261L729 261L729 248L796 248L796 235L757 235L757 222L796 222L796 209L709 209L709 196L796 196L796 183L613 183L613 170L748 170L748 157L796 157L796 143L700 143L700 130L844 130L844 117L825 117L825 104L777 104L777 91L729 91L729 78L690 78L690 65L834 65L834 52L700 52L700 39L767 39L767 26L805 26L805 13L613 13L613 0L662 0L662 13L874 13L874 26L826 26L826 39L758 39L758 52L845 52L845 65L720 65L720 78L730 78L730 91L778 91L778 104L835 104L835 117L874 117L874 130L758 130L758 143L864 143L864 157L787 157L787 170L662 170L662 183L826 183L826 196L758 196L758 209L826 209L826 222L768 222L768 235L826 235L826 248L739 248L739 261L720 261L720 274L874 274L874 287L854 287L854 300L806 300Z" fill="#db4e64"></path><path d="M757 300L834 300L834 287L767 287L767 274L633 274L633 261L690 261L690 248L757 248L757 235L738 235L738 222L729 222L729 209L633 209L633 196L767 196L767 183L594 183L594 170L729 170L729 157L729 157L729 143L642 143L642 130L777 130L777 117L738 117L738 104L767 104L767 91L700 91L700 78L661 78L661 65L777 65L777 52L633 52L633 39L738 39L738 26L796 26L796 13L594 13L594 0L614 0L614 13L806 13L806 26L768 26L768 39L701 39L701 52L835 52L835 65L691 65L691 78L730 78L730 91L778 91L778 104L826 104L826 117L845 117L845 130L701 130L701 143L797 143L797 157L749 157L749 170L614 170L614 183L797 183L797 196L710 196L710 209L797 209L797 222L758 222L758 235L797 235L797 248L730 248L730 261L662 261L662 274L826 274L826 287L845 287L845 300L797 300Z" fill="#ca3c62"></path><path d="M604 300L738 300L738 287L565 287L565 274L412 274L412 261L412 261L412 248L565 248L565 235L633 235L633 222L565 222L565 209L517 209L517 196L460 196L460 183L546 183L546 170L700 170L700 157L354 157L354 143L402 143L402 130L565 130L565 117L671 117L671 104L613 104L613 91L527 91L527 78L498 78L498 65L354 65L354 52L431 52L431 39L690 39L690 26L681 26L681 13L431 13L431 0L595 0L595 13L797 13L797 26L739 26L739 39L634 39L634 52L778 52L778 65L662 65L662 78L701 78L701 91L768 91L768 104L739 104L739 117L778 117L778 130L643 130L643 143L730 143L730 157L730 157L730 170L595 170L595 183L768 183L768 196L634 196L634 209L730 209L730 222L739 222L739 235L758 235L758 248L691 248L691 261L634 261L634 274L768 274L768 287L835 287L835 300L758 300Z" fill="#b82a60"></path><path d="M479 300L652 300L652 287L460 287L460 274L383 274L383 261L373 261L373 248L537 248L537 235L575 235L575 222L402 222L402 209L489 209L489 196L364 196L364 183L479 183L479 170L537 170L537 157L297 157L297 143L297 143L297 130L412 130L412 117L604 117L604 104L441 104L441 91L517 91L517 78L402 78L402 65L277 65L277 52L335 52L335 39L652 39L652 26L585 26L585 13L412 13L412 0L432 0L432 13L682 13L682 26L691 26L691 39L432 39L432 52L355 52L355 65L499 65L499 78L528 78L528 91L614 91L614 104L672 104L672 117L566 117L566 130L403 130L403 143L355 143L355 157L701 157L701 170L547 170L547 183L461 183L461 196L518 196L518 209L566 209L566 222L634 222L634 235L566 235L566 248L413 248L413 261L413 261L413 274L566 274L566 287L739 287L739 300L605 300Z" fill="#b0235f"></path><path d="M373 300L575 300L575 287L354 287L354 274L364 274L364 261L306 261L306 248L450 248L450 235L479 235L479 222L373 222L373 209L469 209L469 196L287 196L287 183L421 183L421 170L527 170L527 157L277 157L277 143L191 143L191 130L354 130L354 117L565 117L565 104L402 104L402 91L489 91L489 78L316 78L316 65L239 65L239 52L258 52L258 39L565 39L565 26L489 26L489 13L325 13L325 0L413 0L413 13L586 13L586 26L653 26L653 39L336 39L336 52L278 52L278 65L403 65L403 78L518 78L518 91L442 91L442 104L605 104L605 117L413 117L413 130L298 130L298 143L298 143L298 157L538 157L538 170L480 170L480 183L365 183L365 196L490 196L490 209L403 209L403 222L576 222L576 235L538 235L538 248L374 248L374 261L384 261L384 274L461 274L461 287L653 287L653 300L480 300Z" fill="#b0235f"></path><path d="M297 300L258 300L258 287L249 287L249 274L143 274L143 261L153 261L153 248L124 248L124 235L143 235L143 222L162 222L162 209L277 209L277 196L220 196L220 183L162 183L162 170L201 170L201 157L114 157L114 143L85 143L85 130L114 130L114 117L210 117L210 104L239 104L239 91L354 91L354 78L249 78L249 65L143 65L143 52L95 52L95 39L287 39L287 26L249 26L249 13L181 13L181 0L326 0L326 13L490 13L490 26L566 26L566 39L259 39L259 52L240 52L240 65L317 65L317 78L490 78L490 91L403 91L403 104L566 104L566 117L355 117L355 130L192 130L192 143L278 143L278 157L528 157L528 170L422 170L422 183L288 183L288 196L470 196L470 209L374 209L374 222L480 222L480 235L451 235L451 248L307 248L307 261L365 261L365 274L355 274L355 287L576 287L576 300L374 300Z" fill="#b82a60"></path><path d="M210 300L172 300L172 287L153 287L153 274L85 274L85 261L105 261L105 248L95 248L95 235L133 235L133 222L133 222L133 209L191 209L191 196L172 196L172 183L114 183L114 170L191 170L191 157L95 157L95 143L76 143L76 130L105 130L105 117L133 117L133 104L191 104L191 91L268 91L268 78L172 78L172 65L85 65L85 52L66 52L66 39L210 39L210 26L210 26L210 13L85 13L85 0L182 0L182 13L250 13L250 26L288 26L288 39L96 39L96 52L144 52L144 65L250 65L250 78L355 78L355 91L240 91L240 104L211 104L211 117L115 117L115 130L86 130L86 143L115 143L115 157L202 157L202 170L163 170L163 183L221 183L221 196L278 196L278 209L163 209L163 222L144 222L144 235L125 235L125 248L154 248L154 261L144 261L144 274L250 274L250 287L259 287L259 300L298 300Z" fill="#ca3c62"></path><path d="M162 300L105 300L105 287L133 287L133 274L85 274L85 261L76 261L76 248L85 248L85 235L76 235L76 222L66 222L66 209L172 209L172 196L172 196L172 183L76 183L76 170L181 170L181 157L76 157L76 143L76 143L76 130L76 130L76 117L76 117L76 104L114 104L114 91L191 91L191 78L153 78L153 65L76 65L76 52L66 52L66 39L143 39L143 26L153 26L153 13L37 13L37 0L86 0L86 13L211 13L211 26L211 26L211 39L67 39L67 52L86 52L86 65L173 65L173 78L269 78L269 91L192 91L192 104L134 104L134 117L106 117L106 130L77 130L77 143L96 143L96 157L192 157L192 170L115 170L115 183L173 183L173 196L192 196L192 209L134 209L134 222L134 222L134 235L96 235L96 248L106 248L106 261L86 261L86 274L154 274L154 287L173 287L173 300L211 300Z" fill="#db4e64"></path><path d="M95 300L85 300L85 287L114 287L114 274L47 274L47 261L18 261L18 248L18 248L18 235L47 235L47 222L57 222L57 209L105 209L105 196L105 196L105 183L57 183L57 170L153 170L153 157L66 157L66 143L9 143L9 130L37 130L37 117L37 117L37 104L105 104L105 91L114 91L114 78L105 78L105 65L57 65L57 52L9 52L9 39L114 39L114 26L105 26L105 13L28 13L28 0L38 0L38 13L154 13L154 26L144 26L144 39L67 39L67 52L77 52L77 65L154 65L154 78L192 78L192 91L115 91L115 104L77 104L77 117L77 117L77 130L77 130L77 143L77 143L77 157L182 157L182 170L77 170L77 183L173 183L173 196L173 196L173 209L67 209L67 222L77 222L77 235L86 235L86 248L77 248L77 261L86 261L86 274L134 274L134 287L106 287L106 300L163 300Z" fill="#eb6066"></path><path d="M0 300L0 300L0 287L0 287L0 274L0 274L0 261L0 261L0 248L0 248L0 235L0 235L0 222L0 222L0 209L0 209L0 196L0 196L0 183L0 183L0 170L0 170L0 157L0 157L0 143L0 143L0 130L0 130L0 117L0 117L0 104L0 104L0 91L0 91L0 78L0 78L0 65L0 65L0 52L0 52L0 39L0 39L0 26L0 26L0 13L0 13L0 0L29 0L29 13L106 13L106 26L115 26L115 39L10 39L10 52L58 52L58 65L106 65L106 78L115 78L115 91L106 91L106 104L38 104L38 117L38 117L38 130L10 130L10 143L67 143L67 157L154 157L154 170L58 170L58 183L106 183L106 196L106 196L106 209L58 209L58 222L48 222L48 235L19 235L19 248L19 248L19 261L48 261L48 274L115 274L115 287L86 287L86 300L96 300Z" fill="#fa7268"></path></svg>