<svg id="visual" viewBox="0 0 900 600" width="900" height="600" xmlns="http://www.w3.org/2000/svg" xmlns:xlink="http://www.w3.org/1999/xlink" version="1.1"><path d="M0 55L6.5 62C13 69 26 83 39 89C52 95 65 93 78 92C91 91 104 91 117.2 108C130.3 125 143.7 159 156.8 168C170 177 183 161 196 146C209 131 222 117 235 99C248 81 261 59 274 56C287 53 300 69 313 88C326 107 339 129 352 141C365 153 378 155 391 158C404 161 417 165 430.2 156C443.3 147 456.7 125 469.8 101C483 77 496 51 509 40C522 29 535 33 548 35C561 37 574 37 587 37C600 37 613 37 626 55C639 73 652 109 665 127C678 145 691 145 704 147C717 149 730 153 743.2 164C756.3 175 769.7 193 782.8 193C796 193 809 175 822 147C835 119 848 81 861 80C874 79 887 115 893.5 133L900 151L900 0L893.5 0C887 0 874 0 861 0C848 0 835 0 822 0C809 0 796 0 782.8 0C769.7 0 756.3 0 743.2 0C730 0 717 0 704 0C691 0 678 0 665 0C652 0 639 0 626 0C613 0 600 0 587 0C574 0 561 0 548 0C535 0 522 0 509 0C496 0 483 0 469.8 0C456.7 0 443.3 0 430.2 0C417 0 404 0 391 0C378 0 365 0 352 0C339 0 326 0 313 0C300 0 287 0 274 0C261 0 248 0 235 0C222 0 209 0 196 0C183 0 170 0 156.8 0C143.7 0 130.3 0 117.2 0C104 0 91 0 78 0C65 0 52 0 39 0C26 0 13 0 6.5 0L0 0Z" fill="#6198ff"></path><path d="M0 91L6.5 97C13 103 26 115 39 129C52 143 65 159 78 169C91 179 104 183 117.2 216C130.3 249 143.7 311 156.8 312C170 313 183 253 196 220C209 187 222 181 235 158C248 135 261 95 274 94C287 93 300 131 313 149C326 167 339 165 352 169C365 173 378 183 391 193C404 203 417 213 430.2 201C443.3 189 456.7 155 469.8 140C483 125 496 129 509 138C522 147 535 161 548 154C561 147 574 119 587 107C600 95 613 99 626 113C639 127 652 151 665 173C678 195 691 215 704 230C717 245 730 255 743.2 258C756.3 261 769.7 257 782.8 244C796 231 809 209 822 190C835 171 848 155 861 166C874 177 887 215 893.5 234L900 253L900 149L893.5 131C887 113 874 77 861 78C848 79 835 117 822 145C809 173 796 191 782.8 191C769.7 191 756.3 173 743.2 162C730 151 717 147 704 145C691 143 678 143 665 125C652 107 639 71 626 53C613 35 600 35 587 35C574 35 561 35 548 33C535 31 522 27 509 38C496 49 483 75 469.8 99C456.7 123 443.3 145 430.2 154C417 163 404 159 391 156C378 153 365 151 352 139C339 127 326 105 313 86C300 67 287 51 274 54C261 57 248 79 235 97C222 115 209 129 196 144C183 159 170 175 156.8 166C143.7 157 130.3 123 117.2 106C104 89 91 89 78 90C65 91 52 93 39 87C26 81 13 67 6.5 60L0 53Z" fill="#548fff"></path><path d="M0 133L6.5 139C13 145 26 157 39 168C52 179 65 189 78 196C91 203 104 207 117.2 237C130.3 267 143.7 323 156.8 328C170 333 183 287 196 261C209 235 222 229 235 205C248 181 261 139 274 140C287 141 300 185 313 206C326 227 339 225 352 220C365 215 378 207 391 214C404 221 417 243 430.2 231C443.3 219 456.7 173 469.8 156C483 139 496 151 509 160C522 169 535 175 548 167C561 159 574 137 587 131C600 125 613 135 626 148C639 161 652 177 665 198C678 219 691 245 704 259C717 273 730 275 743.2 277C756.3 279 769.7 281 782.8 272C796 263 809 243 822 225C835 207 848 191 861 204C874 217 887 259 893.5 280L900 301L900 251L893.5 232C887 213 874 175 861 164C848 153 835 169 822 188C809 207 796 229 782.8 242C769.7 255 756.3 259 743.2 256C730 253 717 243 704 228C691 213 678 193 665 171C652 149 639 125 626 111C613 97 600 93 587 105C574 117 561 145 548 152C535 159 522 145 509 136C496 127 483 123 469.8 138C456.7 153 443.3 187 430.2 199C417 211 404 201 391 191C378 181 365 171 352 167C339 163 326 165 313 147C300 129 287 91 274 92C261 93 248 133 235 156C222 179 209 185 196 218C183 251 170 311 156.8 310C143.7 309 130.3 247 117.2 214C104 181 91 177 78 167C65 157 52 141 39 127C26 113 13 101 6.5 95L0 89Z" fill="#4686ff"></path><path d="M0 157L6.5 170C13 183 26 209 39 220C52 231 65 227 78 240C91 253 104 283 117.2 316C130.3 349 143.7 385 156.8 384C170 383 183 345 196 315C209 285 222 263 235 239C248 215 261 189 274 195C287 201 300 239 313 261C326 283 339 289 352 280C365 271 378 247 391 250C404 253 417 283 430.2 275C443.3 267 456.7 221 469.8 206C483 191 496 207 509 215C522 223 535 223 548 220C561 217 574 211 587 210C600 209 613 213 626 223C639 233 652 249 665 268C678 287 691 309 704 319C717 329 730 327 743.2 324C756.3 321 769.7 317 782.8 304C796 291 809 269 822 249C835 229 848 211 861 222C874 233 887 273 893.5 293L900 313L900 299L893.5 278C887 257 874 215 861 202C848 189 835 205 822 223C809 241 796 261 782.8 270C769.7 279 756.3 277 743.2 275C730 273 717 271 704 257C691 243 678 217 665 196C652 175 639 159 626 146C613 133 600 123 587 129C574 135 561 157 548 165C535 173 522 167 509 158C496 149 483 137 469.8 154C456.7 171 443.3 217 430.2 229C417 241 404 219 391 212C378 205 365 213 352 218C339 223 326 225 313 204C300 183 287 139 274 138C261 137 248 179 235 203C222 227 209 233 196 259C183 285 170 331 156.8 326C143.7 321 130.3 265 117.2 235C104 205 91 201 78 194C65 187 52 177 39 166C26 155 13 143 6.5 137L0 131Z" fill="#387dff"></path><path d="M0 175L6.5 192C13 209 26 243 39 253C52 263 65 249 78 258C91 267 104 299 117.2 331C130.3 363 143.7 395 156.8 398C170 401 183 375 196 351C209 327 222 305 235 277C248 249 261 215 274 220C287 225 300 269 313 295C326 321 339 329 352 321C365 313 378 289 391 290C404 291 417 317 430.2 304C443.3 291 456.7 239 469.8 220C483 201 496 215 509 225C522 235 535 241 548 238C561 235 574 223 587 224C600 225 613 239 626 255C639 271 652 289 665 308C678 327 691 347 704 355C717 363 730 359 743.2 357C756.3 355 769.7 355 782.8 339C796 323 809 291 822 269C835 247 848 235 861 245C874 255 887 287 893.5 303L900 319L900 311L893.5 291C887 271 874 231 861 220C848 209 835 227 822 247C809 267 796 289 782.8 302C769.7 315 756.3 319 743.2 322C730 325 717 327 704 317C691 307 678 285 665 266C652 247 639 231 626 221C613 211 600 207 587 208C574 209 561 215 548 218C535 221 522 221 509 213C496 205 483 189 469.8 204C456.7 219 443.3 265 430.2 273C417 281 404 251 391 248C378 245 365 269 352 278C339 287 326 281 313 259C300 237 287 199 274 193C261 187 248 213 235 237C222 261 209 283 196 313C183 343 170 381 156.8 382C143.7 383 130.3 347 117.2 314C104 281 91 251 78 238C65 225 52 229 39 218C26 207 13 181 6.5 168L0 155Z" fill="#2874ff"></path><path d="M0 211L6.5 223C13 235 26 259 39 270C52 281 65 279 78 291C91 303 104 329 117.2 355C130.3 381 143.7 407 156.8 411C170 415 183 397 196 379C209 361 222 343 235 319C248 295 261 265 274 269C287 273 300 311 313 331C326 351 339 353 352 349C365 345 378 335 391 337C404 339 417 353 430.2 331C443.3 309 456.7 251 469.8 234C483 217 496 241 509 254C522 267 535 269 548 261C561 253 574 235 587 237C600 239 613 261 626 281C639 301 652 319 665 337C678 355 691 373 704 384C717 395 730 399 743.2 400C756.3 401 769.7 399 782.8 382C796 365 809 333 822 305C835 277 848 253 861 263C874 273 887 317 893.5 339L900 361L900 317L893.5 301C887 285 874 253 861 243C848 233 835 245 822 267C809 289 796 321 782.8 337C769.7 353 756.3 353 743.2 355C730 357 717 361 704 353C691 345 678 325 665 306C652 287 639 269 626 253C613 237 600 223 587 222C574 221 561 233 548 236C535 239 522 233 509 223C496 213 483 199 469.8 218C456.7 237 443.3 289 430.2 302C417 315 404 289 391 288C378 287 365 311 352 319C339 327 326 319 313 293C300 267 287 223 274 218C261 213 248 247 235 275C222 303 209 325 196 349C183 373 170 399 156.8 396C143.7 393 130.3 361 117.2 329C104 297 91 265 78 256C65 247 52 261 39 251C26 241 13 207 6.5 190L0 173Z" fill="#126bff"></path><path d="M0 259L6.5 268C13 277 26 295 39 308C52 321 65 329 78 349C91 369 104 401 117.2 425C130.3 449 143.7 465 156.8 473C170 481 183 481 196 468C209 455 222 429 235 405C248 381 261 359 274 353C287 347 300 357 313 373C326 389 339 411 352 419C365 427 378 421 391 420C404 419 417 423 430.2 400C443.3 377 456.7 327 469.8 305C483 283 496 289 509 300C522 311 535 327 548 318C561 309 574 275 587 274C600 273 613 305 626 335C639 365 652 393 665 410C678 427 691 433 704 442C717 451 730 463 743.2 461C756.3 459 769.7 443 782.8 431C796 419 809 411 822 381C835 351 848 299 861 308C874 317 887 387 893.5 422L900 457L900 359L893.5 337C887 315 874 271 861 261C848 251 835 275 822 303C809 331 796 363 782.8 380C769.7 397 756.3 399 743.2 398C730 397 717 393 704 382C691 371 678 353 665 335C652 317 639 299 626 279C613 259 600 237 587 235C574 233 561 251 548 259C535 267 522 265 509 252C496 239 483 215 469.8 232C456.7 249 443.3 307 430.2 329C417 351 404 337 391 335C378 333 365 343 352 347C339 351 326 349 313 329C300 309 287 271 274 267C261 263 248 293 235 317C222 341 209 359 196 377C183 395 170 413 156.8 409C143.7 405 130.3 379 117.2 353C104 327 91 301 78 289C65 277 52 279 39 268C26 257 13 233 6.5 221L0 209Z" fill="#0064f9"></path><path d="M0 277L6.5 287C13 297 26 317 39 336C52 355 65 373 78 390C91 407 104 423 117.2 445C130.3 467 143.7 495 156.8 503C170 511 183 499 196 487C209 475 222 463 235 439C248 415 261 379 274 367C287 355 300 367 313 383C326 399 339 419 352 433C365 447 378 455 391 456C404 457 417 451 430.2 428C443.3 405 456.7 365 469.8 349C483 333 496 341 509 347C522 353 535 357 548 341C561 325 574 289 587 290C600 291 613 329 626 362C639 395 652 423 665 440C678 457 691 463 704 469C717 475 730 481 743.2 476C756.3 471 769.7 455 782.8 445C796 435 809 431 822 406C835 381 848 335 861 345C874 355 887 421 893.5 454L900 487L900 455L893.5 420C887 385 874 315 861 306C848 297 835 349 822 379C809 409 796 417 782.8 429C769.7 441 756.3 457 743.2 459C730 461 717 449 704 440C691 431 678 425 665 408C652 391 639 363 626 333C613 303 600 271 587 272C574 273 561 307 548 316C535 325 522 309 509 298C496 287 483 281 469.8 303C456.7 325 443.3 375 430.2 398C417 421 404 417 391 418C378 419 365 425 352 417C339 409 326 387 313 371C300 355 287 345 274 351C261 357 248 379 235 403C222 427 209 453 196 466C183 479 170 479 156.8 471C143.7 463 130.3 447 117.2 423C104 399 91 367 78 347C65 327 52 319 39 306C26 293 13 275 6.5 266L0 257Z" fill="#005fec"></path><path d="M0 481L6.5 489C13 497 26 513 39 514C52 515 65 501 78 505C91 509 104 531 117.2 544C130.3 557 143.7 561 156.8 563C170 565 183 565 196 554C209 543 222 521 235 521C248 521 261 543 274 552C287 561 300 557 313 545C326 533 339 513 352 513C365 513 378 533 391 535C404 537 417 521 430.2 510C443.3 499 456.7 493 469.8 491C483 489 496 491 509 495C522 499 535 505 548 509C561 513 574 515 587 521C600 527 613 537 626 536C639 535 652 523 665 516C678 509 691 507 704 509C717 511 730 517 743.2 513C756.3 509 769.7 495 782.8 492C796 489 809 497 822 500C835 503 848 501 861 503C874 505 887 511 893.5 514L900 517L900 485L893.5 452C887 419 874 353 861 343C848 333 835 379 822 404C809 429 796 433 782.8 443C769.7 453 756.3 469 743.2 474C730 479 717 473 704 467C691 461 678 455 665 438C652 421 639 393 626 360C613 327 600 289 587 288C574 287 561 323 548 339C535 355 522 351 509 345C496 339 483 331 469.8 347C456.7 363 443.3 403 430.2 426C417 449 404 455 391 454C378 453 365 445 352 431C339 417 326 397 313 381C300 365 287 353 274 365C261 377 248 413 235 437C222 461 209 473 196 485C183 497 170 509 156.8 501C143.7 493 130.3 465 117.2 443C104 421 91 405 78 388C65 371 52 353 39 334C26 315 13 295 6.5 285L0 275Z" fill="#005ae0"></path><path d="M0 535L6.5 537C13 539 26 543 39 545C52 547 65 547 78 550C91 553 104 559 117.2 565C130.3 571 143.7 577 156.8 579C170 581 183 579 196 573C209 567 222 557 235 556C248 555 261 563 274 567C287 571 300 571 313 570C326 569 339 567 352 566C365 565 378 565 391 564C404 563 417 561 430.2 554C443.3 547 456.7 535 469.8 534C483 533 496 543 509 545C522 547 535 541 548 539C561 537 574 539 587 543C600 547 613 553 626 555C639 557 652 555 665 552C678 549 691 545 704 547C717 549 730 557 743.2 556C756.3 555 769.7 545 782.8 540C796 535 809 535 822 535C835 535 848 535 861 539C874 543 887 551 893.5 555L900 559L900 515L893.5 512C887 509 874 503 861 501C848 499 835 501 822 498C809 495 796 487 782.8 490C769.7 493 756.3 507 743.2 511C730 515 717 509 704 507C691 505 678 507 665 514C652 521 639 533 626 534C613 535 600 525 587 519C574 513 561 511 548 507C535 503 522 497 509 493C496 489 483 487 469.8 489C456.7 491 443.3 497 430.2 508C417 519 404 535 391 533C378 531 365 511 352 511C339 511 326 531 313 543C300 555 287 559 274 550C261 541 248 519 235 519C222 519 209 541 196 552C183 563 170 563 156.8 561C143.7 559 130.3 555 117.2 542C104 529 91 507 78 503C65 499 52 513 39 512C26 511 13 495 6.5 487L0 479Z" fill="#0055d3"></path><path d="M0 565L6.5 566C13 567 26 569 39 572C52 575 65 579 78 578C91 577 104 571 117.2 573C130.3 575 143.7 585 156.8 589C170 593 183 591 196 588C209 585 222 581 235 579C248 577 261 577 274 581C287 585 300 593 313 595C326 597 339 593 352 589C365 585 378 581 391 583C404 585 417 593 430.2 590C443.3 587 456.7 573 469.8 569C483 565 496 571 509 572C522 573 535 569 548 570C561 571 574 577 587 580C600 583 613 583 626 583C639 583 652 583 665 581C678 579 691 575 704 574C717 573 730 575 743.2 576C756.3 577 769.7 577 782.8 573C796 569 809 561 822 559C835 557 848 561 861 567C874 573 887 581 893.5 585L900 589L900 557L893.5 553C887 549 874 541 861 537C848 533 835 533 822 533C809 533 796 533 782.8 538C769.7 543 756.3 553 743.2 554C730 555 717 547 704 545C691 543 678 547 665 550C652 553 639 555 626 553C613 551 600 545 587 541C574 537 561 535 548 537C535 539 522 545 509 543C496 541 483 531 469.8 532C456.7 533 443.3 545 430.2 552C417 559 404 561 391 562C378 563 365 563 352 564C339 565 326 567 313 568C300 569 287 569 274 565C261 561 248 553 235 554C222 555 209 565 196 571C183 577 170 579 156.8 577C143.7 575 130.3 569 117.2 563C104 557 91 551 78 548C65 545 52 545 39 543C26 541 13 537 6.5 535L0 533Z" fill="#0051c7"></path><path d="M0 601L6.5 601C13 601 26 601 39 601C52 601 65 601 78 601C91 601 104 601 117.2 601C130.3 601 143.7 601 156.8 601C170 601 183 601 196 601C209 601 222 601 235 601C248 601 261 601 274 601C287 601 300 601 313 601C326 601 339 601 352 601C365 601 378 601 391 601C404 601 417 601 430.2 601C443.3 601 456.7 601 469.8 601C483 601 496 601 509 601C522 601 535 601 548 601C561 601 574 601 587 601C600 601 613 601 626 601C639 601 652 601 665 601C678 601 691 601 704 601C717 601 730 601 743.2 601C756.3 601 769.7 601 782.8 601C796 601 809 601 822 601C835 601 848 601 861 601C874 601 887 601 893.5 601L900 601L900 587L893.5 583C887 579 874 571 861 565C848 559 835 555 822 557C809 559 796 567 782.8 571C769.7 575 756.3 575 743.2 574C730 573 717 571 704 572C691 573 678 577 665 579C652 581 639 581 626 581C613 581 600 581 587 578C574 575 561 569 548 568C535 567 522 571 509 570C496 569 483 563 469.8 567C456.7 571 443.3 585 430.2 588C417 591 404 583 391 581C378 579 365 583 352 587C339 591 326 595 313 593C300 591 287 583 274 579C261 575 248 575 235 577C222 579 209 583 196 586C183 589 170 591 156.8 587C143.7 583 130.3 573 117.2 571C104 569 91 575 78 576C65 577 52 573 39 570C26 567 13 565 6.5 564L0 563Z" fill="#004cbb"></path></svg>