<svg width="726" height="141" viewBox="0 0 726 141" fill="none" xmlns="http://www.w3.org/2000/svg">
<path d="M26.568 100.312V23.992L31.032 19.672H21.96C16.104 19.672 12.792 21.256 12.024 24.424H8.856L0.648 12.616C1.8 10.792 3.288 9.16 5.112 7.71999C6.936 6.27999 8.712 5.55999 10.44 5.55999H48.456C54.312 5.55999 57.624 3.97599 58.392 0.807994H61.56L69.768 12.616C68.616 14.44 67.128 16.072 65.304 17.512C63.48 18.952 61.704 19.672 59.976 19.672H43.848V92.824C43.848 96.376 44.232 98.92 45 100.456C45.768 101.992 47.352 102.76 49.752 102.76V107.224L20.232 119.608L17.928 115C20.04 115 22.056 113.752 23.976 111.256C25.704 108.856 26.568 105.208 26.568 100.312ZM68.7938 105.208V33.928C68.7938 31.336 68.3618 29.512 67.4978 28.456C66.6338 27.304 65.1458 26.728 63.0338 26.728V22.696C75.5138 16.168 86.6498 10.024 96.4418 4.26399L98.7458 8.87199C97.7858 9.35199 96.4418 10.312 94.7138 11.752C92.9858 13.096 91.5458 14.488 90.3938 15.928C87.5138 19.576 86.0738 23.704 86.0738 28.312V40.552C95.9618 35.464 101.722 32.92 103.354 32.92C106.426 32.92 109.354 34.84 112.138 38.68C114.922 42.52 116.314 46.744 116.314 51.352V93.688C116.314 98.968 118.666 102.088 123.37 103.048V106.216L107.674 115C105.562 114.136 103.594 112.744 101.77 110.824C99.9458 108.808 99.0338 106.936 99.0338 105.208V63.448C99.0338 54.04 97.3058 48.712 93.8498 47.464C92.2178 46.888 89.6258 46.6 86.0738 46.6V93.688C86.0738 99.544 88.0418 102.856 91.9778 103.624V106.792L77.4338 115C75.3218 114.136 73.3538 112.744 71.5298 110.824C69.7058 108.808 68.7938 106.936 68.7938 105.208ZM165.949 32.92C166.429 32.92 167.629 33.688 169.549 35.224C171.469 36.664 173.389 38.728 175.309 41.416C177.229 44.008 178.189 46.552 178.189 49.048V73.24C178.189 74.968 175.645 77.08 170.557 79.576C165.469 82.072 160.525 84.136 155.725 85.768C151.021 87.304 148.477 88.072 148.093 88.072C148.093 95.464 151.309 100.024 157.741 101.752C160.909 102.52 164.701 102.904 169.117 102.904V107.08C153.373 112.36 144.973 115 143.917 115C141.037 115 138.109 112.984 135.133 108.952C132.157 104.824 130.669 100.024 130.669 94.552V46.168C130.669 45.496 136.141 43.144 147.085 39.112C158.029 34.984 164.317 32.92 165.949 32.92ZM160.909 55.816C160.909 53.128 160.285 50.872 159.037 49.048C157.789 47.128 156.205 46.168 154.285 46.168C152.365 46.168 150.253 46.888 147.949 48.328V81.592C156.589 79.192 160.909 74.008 160.909 66.04V55.816ZM211.713 18.088C210.753 18.088 209.889 18.568 209.121 19.528V79C209.121 83.032 209.361 86.296 209.841 88.792C210.321 91.192 211.377 93.592 213.009 95.992C216.177 100.6 223.425 102.904 234.753 102.904V107.08C234.273 107.08 230.721 108.424 224.097 111.112C217.473 113.704 213.441 115 212.001 115C207.201 115 202.641 112.264 198.321 106.792C194.001 101.224 191.841 95.368 191.841 89.224V17.368C191.841 16.696 197.313 14.344 208.257 10.312C219.297 6.18399 225.633 4.11999 227.265 4.11999C227.841 4.11999 228.513 5.51199 229.281 8.29599C230.049 11.08 230.913 14.44 231.873 18.376C232.929 22.312 233.985 25.24 235.041 27.16C236.193 28.984 238.305 29.896 241.377 29.896V32.776C239.265 33.736 235.665 35.464 230.577 37.96C225.585 40.36 222.897 41.56 222.513 41.56C221.073 41.56 219.249 37.672 217.041 29.896C214.833 22.024 213.057 18.088 211.713 18.088ZM273.099 46.312C271.275 46.312 269.403 47.08 267.483 48.616V105.784C269.979 105.784 272.763 104.968 275.835 103.336C278.907 101.704 280.443 99.976 280.443 98.152V56.968C280.443 49.864 277.995 46.312 273.099 46.312ZM250.059 130.84V55.096C250.059 52.888 249.435 50.728 248.187 48.616C247.035 46.504 245.355 45.304 243.147 45.016V41.848C243.819 41.752 249.051 38.824 258.843 33.064C261.051 34.024 263.019 35.464 264.747 37.384C266.571 39.208 267.483 40.936 267.483 42.568C277.755 36.232 283.755 33.064 285.483 33.064C286.155 33.064 287.403 33.832 289.227 35.368C291.147 36.808 293.019 38.968 294.843 41.848C296.763 44.632 297.723 47.512 297.723 50.488V101.752C297.723 102.424 293.451 104.44 284.907 107.8C276.459 111.064 270.603 113.128 267.339 113.992V119.32C267.339 125.176 269.307 128.488 273.243 129.256V132.424L258.699 140.632C256.587 139.768 254.619 138.328 252.795 136.312C250.971 134.392 250.059 132.568 250.059 130.84ZM329.214 17.944V35.08H336.558L335.118 42.136H329.214V93.688C329.214 99.544 331.182 102.856 335.118 103.624V106.792L320.574 115C318.462 114.136 316.494 112.744 314.67 110.824C312.846 108.808 311.934 106.936 311.934 105.208V42.28H306.03L307.47 36.232C310.35 36.232 313.806 34.312 317.838 30.472C321.966 26.536 324.414 22.36 325.182 17.944H329.214ZM373.815 25.288C373.815 20.008 371.463 16.888 366.759 15.928V12.76C377.127 6.99999 382.359 4.11999 382.455 4.11999C383.319 4.11999 384.855 5.07999 387.063 6.99999C389.271 8.824 390.615 10.792 391.095 12.904C391.287 12.712 394.215 11.224 399.879 8.44C405.543 5.56 408.423 4.11999 408.519 4.11999C410.439 4.11999 412.551 5.27199 414.855 7.57599C419.271 11.992 421.479 17.896 421.479 25.288V101.608C421.479 102.472 416.343 104.92 406.071 108.952C395.799 112.984 389.415 115 386.919 115C382.407 115 378.663 112.024 375.687 106.072C365.127 112.024 358.455 115 355.671 115C352.887 115 350.151 112.984 347.463 108.952C344.871 104.824 343.575 101.032 343.575 97.576V25.288C343.575 20.008 341.223 16.888 336.519 15.928V12.76L352.215 3.976C354.327 4.84 356.295 6.27999 358.119 8.29599C359.943 10.216 360.855 11.992 360.855 13.624V86.92C360.855 96.04 363.687 100.6 369.351 100.6C370.791 100.6 372.279 100.312 373.815 99.736V25.288ZM391.239 88.36C391.239 91.432 391.815 94.312 392.967 97C394.215 99.592 395.895 100.888 398.007 100.888C400.119 100.888 402.135 100.456 404.055 99.592V30.472C404.055 25.48 403.047 22.168 401.031 20.536C399.015 18.808 395.751 17.896 391.239 17.8V88.36ZM480.465 51.928V92.68C480.465 96.232 481.041 98.728 482.193 100.168C483.345 101.512 485.121 102.472 487.521 103.048V106.216L471.825 115C469.713 114.136 467.745 112.744 465.921 110.824C464.097 108.808 463.185 106.984 463.185 105.352L445.185 115C444.897 114.808 444.465 114.568 443.889 114.28C443.313 113.896 442.305 113.176 440.865 112.12C439.521 110.968 438.321 109.768 437.265 108.52C434.385 105.352 432.945 101.752 432.945 97.72V74.104C432.945 72.568 435.441 70.6 440.433 68.2C445.425 65.8 450.417 63.832 455.409 62.296L463.041 59.848C463.041 54.376 461.601 50.584 458.721 48.472C455.841 46.264 450.273 45.16 442.017 45.16V40.84C456.897 35.56 465.249 32.92 467.073 32.92C470.241 32.92 473.265 34.984 476.145 39.112C479.025 43.24 480.465 47.512 480.465 51.928ZM450.225 92.536C450.225 95.032 450.945 97.096 452.385 98.728C453.921 100.264 455.601 101.032 457.425 101.032C459.249 101.032 461.169 100.312 463.185 98.872V66.328C460.785 67.192 458.961 67.912 457.713 68.488C456.561 69.064 455.313 69.976 453.969 71.224C451.473 73.528 450.225 77.512 450.225 83.176V92.536ZM494.888 20.392C494.888 18.568 499.784 15.448 509.576 11.032C519.368 6.51999 525.32 4.26399 527.432 4.26399C528.2 4.26399 528.824 4.64799 529.304 5.41599C529.784 6.088 530.168 6.712 530.456 7.288L531.752 10.024C532.424 11.272 533.096 12.472 533.768 13.624C535.016 15.928 536.6 17.08 538.52 17.08V19.96C536.984 20.632 534.92 21.688 532.328 23.128C526.28 26.392 523.016 28.024 522.536 28.024C521.096 28.024 519.752 25.912 518.504 21.688C517.352 17.464 516.104 15.352 514.76 15.352C513.032 15.352 512.168 16.792 512.168 19.672V40.84H526.856V44.296L519.656 47.896H512.168V93.688C512.168 99.544 514.136 102.856 518.072 103.624V106.792L503.528 115C501.416 114.136 499.448 112.744 497.624 110.824C495.8 108.808 494.888 106.936 494.888 105.208V47.896H486.103V44.728L494.888 40.84V20.392ZM541.013 20.392C541.013 18.568 545.909 15.448 555.701 11.032C565.493 6.51999 571.445 4.26399 573.557 4.26399C574.325 4.26399 574.949 4.64799 575.429 5.41599C575.909 6.088 576.293 6.712 576.581 7.288L577.877 10.024C578.549 11.272 579.221 12.472 579.893 13.624C581.141 15.928 582.725 17.08 584.645 17.08V19.96C583.109 20.632 581.045 21.688 578.453 23.128C572.405 26.392 569.141 28.024 568.661 28.024C567.221 28.024 565.877 25.912 564.629 21.688C563.477 17.464 562.229 15.352 560.885 15.352C559.157 15.352 558.293 16.792 558.293 19.672V40.84H572.981V44.296L565.781 47.896H558.293V93.688C558.293 99.544 560.261 102.856 564.197 103.624V106.792L549.653 115C547.541 114.136 545.573 112.744 543.749 110.824C541.925 108.808 541.013 106.936 541.013 105.208V47.896H532.228V44.728L541.013 40.84V20.392ZM604.418 14.056V93.688C604.418 99.544 606.386 102.856 610.322 103.624V106.792L595.778 115C593.666 114.136 591.698 112.744 589.874 110.824C588.05 108.808 587.138 106.936 587.138 105.208V25.576C587.138 19.72 585.17 16.408 581.234 15.64V12.472L595.778 4.26399C597.89 5.12799 599.858 6.56799 601.682 8.584C603.506 10.504 604.418 12.328 604.418 14.056ZM654.058 32.92C654.538 32.92 655.738 33.688 657.658 35.224C659.578 36.664 661.498 38.728 663.418 41.416C665.338 44.008 666.298 46.552 666.298 49.048V73.24C666.298 74.968 663.754 77.08 658.666 79.576C653.578 82.072 648.634 84.136 643.834 85.768C639.13 87.304 636.586 88.072 636.202 88.072C636.202 95.464 639.418 100.024 645.85 101.752C649.018 102.52 652.81 102.904 657.226 102.904V107.08C641.482 112.36 633.082 115 632.026 115C629.146 115 626.218 112.984 623.242 108.952C620.266 104.824 618.778 100.024 618.778 94.552V46.168C618.778 45.496 624.25 43.144 635.194 39.112C646.138 34.984 652.426 32.92 654.058 32.92ZM649.018 55.816C649.018 53.128 648.394 50.872 647.146 49.048C645.898 47.128 644.314 46.168 642.394 46.168C640.474 46.168 638.362 46.888 636.058 48.328V81.592C644.698 79.192 649.018 74.008 649.018 66.04V55.816ZM686.574 83.464C684.174 83.464 682.11 81.64 680.382 77.992C678.654 74.344 677.79 69.88 677.79 64.6V49.048C677.79 47.224 682.83 44.104 692.91 39.688C702.99 35.176 708.798 32.92 710.334 32.92C711.198 32.92 711.966 33.448 712.638 34.504C713.31 35.464 713.838 36.28 714.222 36.952C714.606 37.528 715.182 38.584 715.95 40.12C716.814 41.56 717.534 42.76 718.11 43.72C719.358 46.024 720.942 47.176 722.862 47.176V50.056C721.326 50.728 719.31 51.736 716.814 53.08C710.67 56.44 707.358 58.12 706.878 58.12C705.438 58.12 703.854 55.768 702.126 51.064C700.494 46.36 699.006 44.008 697.662 44.008C695.934 44.008 695.07 45.448 695.07 48.328V66.04C695.07 69.88 695.934 71.8 697.662 71.8C698.046 71.8 701.022 70.552 706.59 68.056C712.158 65.56 715.518 64.312 716.67 64.312C718.974 64.312 720.99 66.184 722.718 69.928C724.542 73.576 725.454 78.28 725.454 84.04V100.312C725.454 102.136 719.934 105.304 708.894 109.816C697.95 114.232 691.662 116.44 690.03 116.44C689.358 116.44 688.686 115.864 688.014 114.712C687.438 113.464 686.574 111.592 685.422 109.096C684.366 106.6 683.31 104.488 682.254 102.76C681.006 100.456 679.422 99.304 677.502 99.304V96.424C679.038 95.752 681.102 94.744 683.694 93.4C689.742 90.04 693.006 88.36 693.486 88.36C694.926 88.36 696.702 91.192 698.814 96.856C701.022 102.52 702.798 105.352 704.142 105.352C705.102 105.352 706.014 104.968 706.878 104.2C707.742 103.432 708.174 102.376 708.174 101.032V83.032C708.174 78.712 706.974 76.552 704.574 76.552C703.806 76.552 700.782 77.704 695.502 80.008C690.222 82.312 687.246 83.464 686.574 83.464Z" fill="black"/>
</svg>
